<?xml version="1.0" standalone="no"?>
<!DOCTYPE svg PUBLIC "-//W3C//DTD SVG 20010904//EN"
 "http://www.w3.org/TR/2001/REC-SVG-20010904/DTD/svg10.dtd">
<svg version="1.0" xmlns="http://www.w3.org/2000/svg"
 width="800.000000pt" height="800.000000pt" viewBox="0 0 800.000000 800.000000"
 preserveAspectRatio="xMidYMid meet">

<g transform="translate(0.000000,800.000000) scale(0.100000,-0.100000)"
fill="#000000" stroke="none">
<path d="M6355 7990 c3 -5 12 -10 19 -10 7 0 28 -12 47 -26 44 -33 77 -46 100
-39 28 9 25 38 -3 31 -13 -3 -17 -3 -10 0 17 8 15 41 -4 48 -27 10 -156 7
-149 -4z"/>
<path d="M6610 7985 c0 -8 7 -15 15 -15 9 0 12 -6 9 -17 -5 -16 -5 -17 5 -1 6
9 8 23 5 32 -8 20 -34 21 -34 1z"/>
<path d="M7000 7988 c0 -9 6 -18 14 -21 8 -3 12 -14 10 -24 -3 -10 -1 -29 5
-43 5 -14 10 -20 10 -13 1 8 13 10 38 6 26 -4 34 -3 29 5 -4 7 -16 12 -26 12
-10 0 -22 5 -26 11 -7 12 17 10 61 -5 20 -7 20 -7 1 6 -11 7 -30 23 -42 36
-11 12 -28 22 -36 22 -8 0 -19 5 -26 12 -9 9 -12 8 -12 -4z"/>
<path d="M7548 7983 c-10 -2 -18 -11 -18 -19 0 -8 -5 -14 -11 -14 -6 0 -9 -7
-5 -15 3 -8 4 -15 2 -15 -3 0 -12 -3 -20 -6 -12 -5 -15 -2 -10 10 3 9 2 16 -4
16 -5 0 -13 -10 -16 -22 l-7 -23 -11 23 c-12 24 -28 28 -45 11 -12 -12 -53 4
-53 21 0 6 -7 10 -15 10 -8 0 -15 5 -15 10 0 6 -7 10 -16 10 -8 0 -12 -4 -9
-10 3 -5 1 -10 -4 -10 -6 0 -11 5 -11 10 0 6 -10 10 -22 10 -17 0 -19 -3 -9
-9 11 -7 10 -11 -7 -20 -13 -7 -23 -7 -27 -1 -3 5 -12 7 -20 4 -8 -4 -12 -10
-9 -15 3 -5 -7 -9 -23 -9 -22 0 -25 -2 -13 -10 13 -9 12 -12 -4 -25 -10 -8
-22 -16 -26 -17 -4 -2 -11 -13 -14 -26 -7 -21 -5 -22 18 -16 15 4 26 2 26 -4
0 -6 -13 -13 -30 -17 -32 -7 -41 -25 -12 -26 13 0 14 -2 2 -6 -8 -3 -23 -12
-32 -20 -9 -8 -22 -12 -29 -7 -7 4 -49 8 -95 9 -64 2 -84 -1 -88 -12 -5 -12
-12 -10 -36 7 -30 21 -31 21 -59 3 -24 -15 -27 -22 -20 -40 5 -13 15 -23 23
-23 8 0 28 -11 44 -25 36 -30 48 -31 55 -4 5 18 10 20 39 13 18 -4 54 -7 81
-6 32 2 47 -2 48 -10 1 -7 2 -22 3 -33 1 -14 7 -19 21 -17 11 2 34 6 52 9 41
6 83 -32 83 -75 0 -25 -4 -29 -30 -30 -37 -1 -70 -11 -70 -21 0 -14 42 -53
159 -146 64 -51 168 -138 231 -193 l115 -100 3 452 c1 248 0 457 -3 464 -4 12
-24 14 -57 5z"/>
<path d="M6539 7889 c13 -11 26 -17 29 -15 7 8 -25 36 -40 36 -7 -1 -3 -9 11
-21z"/>
<path d="M6750 7890 c0 -5 5 -10 10 -10 6 0 10 5 10 10 0 6 -4 10 -10 10 -5 0
-10 -4 -10 -10z"/>
<path d="M7050 7855 c-14 -16 -10 -18 14 -9 9 3 16 10 16 15 0 14 -16 11 -30
-6z"/>
<path d="M6800 7810 c0 -11 4 -20 9 -20 5 0 7 9 4 20 -3 11 -7 20 -9 20 -2 0
-4 -9 -4 -20z"/>
<path d="M4466 7709 c-10 -6 -38 -9 -62 -6 -39 4 -64 -5 -64 -25 0 -4 6 -8 14
-8 13 0 26 -20 26 -41 0 -5 -7 -9 -15 -9 -8 0 -15 5 -15 11 0 7 -11 9 -27 6
-19 -4 -32 1 -44 15 -14 16 -22 17 -38 9 -11 -6 -29 -11 -40 -11 -12 0 -21 -4
-21 -10 0 -5 -4 -10 -10 -10 -5 0 -10 6 -10 14 0 25 -29 47 -48 37 -35 -19
-97 -38 -109 -34 -7 3 -13 11 -13 19 0 16 -16 19 -25 4 -3 -5 -27 -8 -52 -5
-27 3 -50 0 -53 -5 -4 -6 -24 -13 -46 -17 -21 -3 -49 -14 -60 -25 -27 -25 -42
-7 -23 28 14 27 5 44 -13 26 -18 -18 -38 -14 -38 8 0 11 -7 20 -15 20 -14 0
-19 -12 -16 -32 2 -13 -77 -2 -94 12 -22 18 -44 -2 -26 -24 17 -20 -2 -56 -26
-50 -10 3 -26 -1 -37 -9 -16 -11 -24 -11 -60 7 -22 11 -42 24 -44 28 -7 17
-24 6 -74 -47 -28 -30 -57 -55 -64 -55 -8 0 -21 -11 -29 -24 -18 -27 -53 -40
-70 -26 -8 6 -19 3 -34 -11 -14 -13 -28 -18 -42 -14 -11 4 -30 0 -44 -9 -13
-9 -31 -16 -40 -16 -8 0 -15 -4 -15 -10 0 -5 7 -10 15 -10 18 0 20 -16 4 -26
-6 -3 -14 -1 -18 5 -9 14 -37 5 -44 -14 -6 -15 -63 -45 -86 -45 -20 -1 -56
-30 -64 -52 -4 -10 -13 -18 -22 -18 -21 0 -19 -13 6 -28 13 -8 19 -21 17 -35
-2 -12 3 -27 11 -33 19 -15 5 -78 -16 -70 -11 5 -14 1 -11 -12 8 -31 -10 -52
-45 -52 -33 -1 -97 -43 -84 -56 4 -4 2 -13 -4 -20 -7 -9 -7 -19 1 -33 8 -17 8
-21 -4 -21 -8 0 -18 -5 -22 -12 -12 -20 -4 -102 12 -119 25 -27 -4 -35 -32 -8
-31 29 -39 20 -24 -26 13 -40 8 -65 -14 -65 -18 0 -58 -81 -47 -93 10 -10 1
-50 -25 -118 -19 -50 -22 -42 39 -110 14 -16 24 -40 25 -59 0 -18 5 -37 11
-43 7 -7 5 -20 -6 -41 -24 -46 -22 -157 7 -421 5 -49 10 -174 10 -278 l0 -187
25 6 c26 6 29 2 16 -31 -5 -11 -4 -31 1 -44 5 -13 5 -33 2 -45 -6 -17 -9 -13
-19 24 -6 27 -17 46 -27 48 -14 3 -15 -3 -7 -37 5 -22 18 -55 29 -73 11 -19
20 -52 21 -78 1 -44 1 -44 19 27 18 74 34 329 21 338 -9 5 -6 75 4 122 6 25 4
32 -11 35 -16 3 -15 6 9 32 15 16 24 32 22 36 -3 5 4 24 15 43 12 20 22 46 23
59 3 31 42 72 61 65 9 -4 15 -3 15 1 -4 21 3 42 17 56 8 9 19 30 24 47 8 26 7
29 -5 19 -12 -10 -15 -9 -15 3 0 9 4 18 10 22 5 3 7 12 3 20 -3 8 -1 15 4 15
5 0 20 14 33 32 20 28 21 30 4 24 -44 -18 -48 -16 -21 8 15 14 27 29 27 33 0
5 12 21 26 36 14 16 23 35 20 43 -3 8 1 17 9 20 19 8 57 73 49 85 -8 14 15 39
37 39 11 0 19 6 19 13 0 7 27 32 60 55 48 34 70 43 117 48 32 3 60 9 63 15 9
13 50 20 50 8 0 -6 7 -3 16 5 18 18 24 19 43 7 8 -6 27 -3 50 6 21 9 37 11 39
5 3 -11 42 -4 42 8 0 4 6 7 13 7 11 -1 90 8 172 19 17 3 103 6 192 8 119 3
165 1 172 -8 7 -8 43 -11 114 -10 58 1 129 -3 158 -8 30 -5 69 -11 88 -14 18
-2 41 -8 50 -13 9 -5 22 -6 29 -4 7 3 22 -3 32 -12 10 -9 23 -14 29 -11 5 4
13 1 16 -4 4 -6 18 -16 32 -21 14 -5 27 -18 30 -29 3 -13 14 -20 29 -20 36 0
68 -18 89 -51 13 -19 26 -28 37 -25 10 2 21 0 24 -5 11 -18 81 -48 101 -43 12
3 24 1 27 -5 4 -6 23 -11 42 -11 19 0 34 -5 34 -11 0 -5 5 -7 11 -3 15 9 95
-76 116 -125 10 -23 21 -41 25 -41 5 0 8 -11 8 -24 0 -14 8 -31 18 -38 10 -7
27 -34 36 -60 10 -26 27 -56 37 -67 20 -22 25 -51 9 -51 -16 0 -11 -30 9 -56
11 -13 17 -33 14 -43 -5 -20 21 -51 44 -51 10 0 13 -6 9 -16 -3 -8 1 -26 9
-38 14 -21 14 -24 0 -30 -14 -5 -14 -8 3 -27 11 -11 20 -35 20 -52 0 -18 6
-46 14 -63 13 -30 12 -108 -6 -384 -2 -41 1 -97 7 -125 l11 -50 6 35 c4 19 14
49 24 65 67 118 67 119 55 142 -6 12 -9 37 -6 55 3 18 12 71 21 118 14 81 27
192 28 235 2 55 29 239 39 257 6 11 9 43 8 71 -2 39 3 63 21 97 13 25 25 63
26 85 1 22 2 48 3 58 1 9 7 17 15 17 37 0 11 69 -26 70 -7 0 -1 11 14 24 22
19 58 83 58 103 0 2 -10 -1 -21 -8 -17 -9 -20 -8 -17 3 3 7 13 15 24 17 20 4
34 18 34 38 0 6 -8 9 -20 6 -21 -6 -29 20 -10 32 6 4 8 10 5 15 -3 5 -1 18 4
28 8 15 4 25 -19 47 -17 16 -30 32 -30 37 0 14 22 8 36 -9 12 -16 13 -15 12
12 0 17 9 54 20 84 12 29 24 82 27 118 l5 63 -25 -6 c-21 -5 -25 -3 -25 14 0
12 5 24 10 27 16 10 12 23 -11 36 -17 9 -23 7 -36 -10 -8 -12 -20 -21 -27 -21
-8 0 -16 -7 -20 -15 -3 -8 -17 -15 -31 -15 -29 0 -33 15 -8 24 11 5 14 9 6 14
-6 4 -20 23 -31 42 -14 25 -26 34 -40 33 -16 -2 -20 2 -15 13 5 14 -2 15 -46
10 -32 -3 -51 -1 -51 5 0 6 -9 8 -20 4 -23 -7 -28 10 -6 18 17 7 36 67 36 114
0 22 7 37 20 45 11 7 20 21 20 32 0 15 -5 17 -31 12 -41 -8 -61 8 -52 42 5 22
3 24 -14 20 -15 -4 -19 -1 -16 11 3 12 -3 16 -28 16 -18 0 -34 -6 -36 -12 -3
-7 -13 -13 -24 -13 -10 0 -19 -4 -19 -10 0 -5 -4 -10 -9 -10 -5 0 -9 6 -8 13
1 48 -3 57 -30 57 -22 0 -25 -2 -13 -10 8 -5 11 -10 5 -10 -15 1 -45 26 -45
39 0 6 -4 11 -10 11 -5 0 -10 -11 -10 -25 0 -25 -14 -33 -25 -15 -3 6 -1 10 4
10 16 0 13 27 -5 55 -11 17 -26 25 -45 25 -16 0 -29 5 -29 11 0 18 -28 39 -43
33 -10 -3 -22 9 -36 40 -25 50 -67 84 -84 67 -8 -8 -16 -6 -29 6 -27 25 -23
47 7 39 26 -7 33 6 16 33 -7 11 -12 10 -27 -8 -25 -29 -74 -29 -74 1 0 20 -1
21 -20 3 -25 -23 -25 -35 -1 -35 29 0 35 -17 10 -31 -25 -13 -39 1 -39 38 0
16 -10 25 -35 34 -19 7 -35 16 -35 20 0 9 -59 22 -85 19 -15 -1 -17 1 -9 12 6
7 14 21 17 31 7 20 -17 23 -47 6z m-376 -69 c0 -5 -4 -10 -10 -10 -5 0 -10 5
-10 10 0 6 5 10 10 10 6 0 10 -4 10 -10z m460 -10 c0 -5 -7 -10 -16 -10 -8 0
-12 5 -9 10 3 6 10 10 16 10 5 0 9 -4 9 -10z m-38 -32 c14 -14 18 -23 10 -26
-7 -2 -12 -10 -12 -18 0 -8 -5 -14 -11 -14 -7 0 -9 10 -5 26 4 15 2 32 -5 40
-18 22 -1 16 23 -8z m-177 -18 c7 -12 -2 -12 -30 0 -19 8 -19 9 2 9 12 1 25
-3 28 -9z m295 -26 c0 -8 -4 -12 -10 -9 -5 3 -10 10 -10 16 0 5 5 9 10 9 6 0
10 -7 10 -16z m-55 -55 c11 -17 -1 -21 -15 -4 -8 9 -8 15 -2 15 6 0 14 -5 17
-11z m305 -7 c0 -4 -9 -13 -20 -20 -16 -10 -20 -10 -20 2 0 8 6 17 13 19 19 8
27 8 27 -1z m-183 -28 c-3 -3 -12 -4 -19 -1 -8 3 -5 6 6 6 11 1 17 -2 13 -5z
m-417 -69 c0 -8 -4 -15 -10 -15 -5 0 -7 7 -4 15 4 8 8 15 10 15 2 0 4 -7 4
-15z m500 5 c0 -5 -4 -10 -9 -10 -6 0 -13 5 -16 10 -3 6 1 10 9 10 9 0 16 -4
16 -10z m-65 -10 c3 -5 1 -10 -4 -10 -6 0 -11 5 -11 10 0 6 2 10 4 10 3 0 8
-4 11 -10z m195 -36 c0 -8 -5 -14 -11 -14 -6 0 -9 7 -5 15 3 9 0 15 -10 15 -8
0 -12 5 -9 10 9 14 35 -7 35 -26z m-255 17 c3 -5 1 -12 -5 -16 -5 -3 -10 1
-10 9 0 18 6 21 15 7z m115 5 c0 -3 -4 -8 -10 -11 -5 -3 -10 -1 -10 4 0 6 5
11 10 11 6 0 10 -2 10 -4z m70 -12 c0 -8 -4 -12 -10 -9 -5 3 -10 10 -10 16 0
5 5 9 10 9 6 0 10 -7 10 -16z m-120 -24 c13 -8 13 -10 -2 -10 -9 0 -20 5 -23
10 -8 13 5 13 25 0z m300 -10 c0 -5 -2 -10 -4 -10 -3 0 -8 5 -11 10 -3 6 -1
10 4 10 6 0 11 -4 11 -10z m-40 -16 c0 -8 -5 -12 -10 -9 -6 4 -8 11 -5 16 9
14 15 11 15 -7z m60 -34 c0 -5 -2 -10 -4 -10 -3 0 -8 5 -11 10 -3 6 -1 10 4
10 6 0 11 -4 11 -10z m100 -10 c0 -5 -5 -10 -11 -10 -5 0 -7 5 -4 10 3 6 8 10
11 10 2 0 4 -4 4 -10z m-67 -19 c4 0 7 -5 7 -9 0 -10 -58 -3 -64 7 -4 6 29 7
57 2z m71 -153 c-6 -9 -34 1 -34 11 0 4 3 10 6 14 8 7 33 -16 28 -25z m124 11
c-19 -13 -28 -11 -28 5 0 9 7 12 21 9 16 -4 17 -8 7 -14z m92 -66 c0 -21 -21
-25 -41 -7 -31 28 -25 45 11 31 17 -6 30 -17 30 -24z m-51 -77 c10 -12 8 -13
-8 -9 -12 3 -21 9 -21 14 0 14 16 11 29 -5z m51 -60 c0 -8 13 -17 30 -21 16
-4 33 -11 36 -17 5 -8 -1 -9 -17 -5 -13 4 -35 7 -48 7 -15 0 -21 4 -18 14 3 7
0 19 -6 25 -8 8 -7 11 6 11 9 0 17 -6 17 -14z m150 -1 c0 -2 -7 -5 -15 -9 -9
-3 -15 0 -15 9 0 9 6 12 15 9 8 -4 15 -7 15 -9z m-112 -97 c-5 -13 -48 -21
-48 -8 0 12 13 20 33 20 10 0 17 -5 15 -12z m130 -29 c-2 -6 -8 -10 -13 -10
-5 0 -11 4 -13 10 -2 6 4 11 13 11 9 0 15 -5 13 -11z"/>
<path d="M4843 7598 c-2 -18 0 -20 7 -8 12 18 13 30 2 30 -4 0 -9 -10 -9 -22z"/>
<path d="M4870 7554 c0 -8 5 -12 10 -9 6 4 8 11 5 16 -9 14 -15 11 -15 -7z"/>
<path d="M5024 7488 c-5 -7 -9 -26 -9 -43 0 -36 27 -42 30 -7 1 13 8 27 15 32
15 9 5 30 -14 30 -8 0 -17 -6 -22 -12z"/>
<path d="M3125 5534 c-145 -31 -295 -126 -295 -187 0 -10 -5 -28 -11 -39 -9
-18 -9 -20 4 -15 9 3 17 1 19 -5 3 -7 15 -5 37 6 17 10 47 16 64 14 22 -2 31
1 30 10 -2 8 9 12 31 12 26 0 35 5 39 21 3 12 10 19 14 16 5 -3 40 -8 77 -11
37 -3 71 -8 75 -10 4 -3 34 -6 67 -7 32 -1 65 -6 71 -12 7 -5 20 -6 29 -3 9 4
22 2 29 -4 8 -6 55 -13 107 -16 51 -3 103 -7 114 -9 46 -10 72 76 34 110 -14
13 -17 21 -9 31 5 7 6 14 2 17 -54 32 -88 47 -110 47 -27 0 -101 19 -118 30
-5 4 -44 7 -85 7 -41 1 -91 3 -110 6 -19 3 -66 -1 -105 -9z"/>
<path d="M4499 5468 c-13 -10 -32 -26 -42 -35 -10 -10 -18 -13 -17 -8 6 27 -2
45 -18 45 -22 0 -52 -30 -52 -51 0 -8 -9 -25 -20 -39 -18 -23 -20 -24 -20 -4
0 11 -6 29 -14 39 -13 18 -15 18 -30 2 -10 -9 -22 -17 -27 -17 -6 0 -8 -9 -5
-20 3 -11 8 -29 11 -39 5 -16 2 -18 -15 -14 -20 5 -27 -7 -12 -21 4 -4 7 -13
7 -19 0 -25 35 -18 45 8 10 25 11 26 28 9 16 -16 17 -16 20 -1 2 9 8 17 14 17
5 0 8 -6 5 -12 -9 -26 13 -48 48 -48 23 0 34 -4 33 -12 -2 -7 4 -11 12 -9 63
16 88 17 83 5 -4 -11 11 -12 79 -7 211 18 422 4 403 -26 -2 -5 13 -13 35 -20
22 -6 45 -20 53 -31 7 -10 25 -22 40 -25 23 -6 28 -3 37 20 5 14 7 37 4 49 -9
38 -61 93 -119 126 -30 17 -55 35 -55 40 0 18 -108 61 -166 65 -37 3 -63 11
-70 20 -6 8 -17 15 -24 15 -10 0 -10 -3 0 -15 11 -13 8 -15 -13 -15 -20 0 -25
4 -20 16 5 14 -1 16 -45 13 -27 -2 -48 -1 -45 4 4 7 1 8 -63 12 -27 1 -49 -5
-65 -17z"/>
<path d="M3707 5383 c-6 -31 7 -53 22 -37 13 13 17 39 7 41 -5 1 -12 7 -16 13
-4 7 -9 1 -13 -17z"/>
<path d="M3710 5309 c0 -5 5 -7 10 -4 6 3 10 8 10 11 0 2 -4 4 -10 4 -5 0 -10
-5 -10 -11z"/>
<path d="M3160 5184 c-57 -16 -128 -52 -149 -78 -8 -9 -11 -26 -7 -41 6 -22 3
-25 -21 -26 -25 0 -26 -1 -8 -9 19 -8 19 -8 1 -16 -18 -7 -18 -8 3 -16 12 -4
19 -13 16 -19 -5 -7 4 -8 27 -4 26 5 38 1 56 -15 17 -16 30 -20 48 -16 22 6
24 4 15 -12 -9 -17 -8 -18 25 -8 27 9 30 12 16 16 -11 3 -32 20 -48 39 l-28
34 23 18 c13 11 29 19 36 19 7 0 20 3 29 6 12 5 16 0 16 -20 0 -15 9 -44 20
-66 21 -42 45 -52 125 -52 41 0 73 -16 76 -36 0 -4 2 -16 4 -27 2 -11 -3 -28
-12 -37 -14 -15 -34 -18 -137 -18 -67 0 -128 -4 -135 -9 -26 -17 36 -26 154
-24 111 1 208 23 262 58 12 8 29 15 37 15 9 0 19 12 22 26 5 18 10 22 17 15
17 -17 25 -13 21 12 -4 20 -3 20 7 -3 8 -19 13 -21 17 -10 7 20 28 40 41 40 6
0 8 -7 5 -15 -10 -26 22 -17 41 11 13 21 15 38 10 85 -4 32 -13 63 -21 70 -8
6 -36 12 -63 13 -36 1 -61 10 -92 31 -71 48 -101 62 -157 74 -73 15 -226 13
-292 -5z m242 -32 c61 -27 49 -44 -24 -37 -35 4 -68 8 -75 10 -6 2 -27 0 -45
-6 -18 -5 -45 -12 -60 -14 -15 -3 -57 -16 -93 -29 -73 -26 -93 -18 -52 20 75
69 255 98 349 56z m121 -130 c27 -28 27 -29 10 -50 -15 -17 -102 -55 -110 -48
-1 1 9 24 22 51 14 26 25 54 25 62 0 22 25 15 53 -15z m-220 -56 c6 -16 -2
-28 -14 -20 -12 7 -11 34 0 34 5 0 11 -6 14 -14z m64 -13 c-15 -16 -17 -16
-17 -1 0 9 6 18 13 21 20 7 22 -2 4 -20z m183 -43 c20 -13 11 -19 -46 -29 -49
-9 -63 -4 -64 27 0 14 87 17 110 2z m66 -15 c-8 -8 -17 -15 -20 -15 -3 0 -3 7
0 15 4 8 13 15 21 15 12 0 12 -2 -1 -15z m-136 -55 c0 -5 -7 -10 -16 -10 -8 0
-12 5 -9 10 3 6 10 10 16 10 5 0 9 -4 9 -10z"/>
<path d="M4445 5106 c-22 -8 -53 -21 -70 -30 -16 -9 -36 -16 -44 -16 -8 0 -11
-6 -7 -15 4 -10 -3 -20 -19 -27 -14 -6 -25 -15 -25 -20 0 -17 -30 -7 -41 13
l-11 21 -19 -21 c-11 -12 -25 -21 -30 -21 -6 0 -8 -7 -5 -16 4 -9 1 -23 -5
-30 -9 -11 -8 -14 6 -14 9 0 15 -6 13 -12 -3 -7 4 -22 15 -33 20 -20 20 -20
14 3 -5 22 7 31 18 12 3 -5 15 -10 26 -10 10 0 28 -5 39 -12 15 -10 26 -10 53
0 40 14 67 16 67 3 0 -5 9 -7 20 -4 12 3 22 0 25 -9 4 -11 23 -14 83 -11 53 2
72 0 62 -7 -9 -6 -10 -10 -3 -10 6 0 15 5 18 10 5 8 11 8 19 1 32 -27 96 39
96 98 0 17 3 31 6 31 11 0 50 -23 71 -43 22 -20 22 -20 3 -45 -11 -13 -18 -28
-15 -32 7 -12 74 -17 78 -6 2 5 12 10 23 11 34 4 74 17 74 25 0 4 -9 15 -20
25 -13 12 -18 27 -16 49 5 39 -42 87 -111 110 -121 43 -308 58 -388 32z m325
-39 c75 -29 107 -47 133 -73 15 -15 27 -31 27 -36 0 -15 -59 2 -97 28 -20 13
-42 24 -49 24 -7 0 -33 9 -56 19 -24 11 -60 23 -80 26 -21 3 -38 11 -38 16 0
6 -9 7 -21 4 -16 -5 -19 -4 -14 5 10 16 143 7 195 -13z m-272 -100 c-1 -18 1
-42 6 -54 6 -19 4 -23 -11 -22 -10 0 -31 8 -48 18 -42 25 -40 58 4 82 42 22
51 17 49 -24z m-228 -11 c0 -2 -7 -7 -16 -10 -8 -3 -12 -2 -9 4 6 10 25 14 25
6z m420 -56 c0 -5 -8 -10 -17 -10 -10 0 -29 -3 -43 -7 -22 -6 -24 -5 -11 10
14 18 71 24 71 7z"/>
<path d="M2340 5017 c0 -40 13 -67 32 -67 12 0 9 53 -4 83 -19 39 -28 33 -28
-16z"/>
<path d="M3195 4909 c-11 -16 -2 -17 30 -3 l30 13 -27 1 c-15 0 -30 -5 -33
-11z"/>
<path d="M3275 4900 c-3 -5 -1 -10 4 -10 6 0 11 5 11 10 0 6 -2 10 -4 10 -3 0
-8 -4 -11 -10z"/>
<path d="M5392 4850 c0 -14 2 -19 5 -12 2 6 2 18 0 25 -3 6 -5 1 -5 -13z"/>
<path d="M5552 4849 c-11 -27 -11 -53 1 -65 9 -9 19 39 15 67 l-4 24 -12 -26z"/>
<path d="M4755 4850 c-3 -5 -4 -10 -1 -10 2 0 11 -3 20 -6 11 -4 16 -1 16 10
0 18 -25 22 -35 6z"/>
<path d="M4406 4771 c-16 -25 125 -81 203 -81 43 0 35 9 -19 21 -23 5 -71 23
-106 39 -71 33 -71 33 -78 21z"/>
<path d="M2517 4721 c-21 -42 -21 -51 -2 -51 16 0 29 37 23 67 -3 14 -7 10
-21 -16z"/>
<path d="M5390 4671 c0 -6 5 -13 10 -16 6 -3 10 1 10 9 0 9 -4 16 -10 16 -5 0
-10 -4 -10 -9z"/>
<path d="M5386 4529 c-4 -50 -11 -114 -17 -142 -5 -29 -12 -72 -14 -97 -2 -25
-9 -72 -15 -105 -5 -33 -10 -63 -10 -67 0 -4 -6 -13 -14 -20 -7 -8 -20 -41
-29 -75 -15 -60 -61 -128 -78 -117 -5 3 -9 -7 -9 -21 0 -16 -4 -24 -10 -20 -7
4 -9 -3 -5 -22 3 -15 2 -22 -1 -14 -5 10 -11 6 -20 -15 l-14 -29 6 33 c3 17 3
32 0 32 -8 0 -38 -61 -33 -66 3 -3 -1 -24 -8 -47 -7 -24 -9 -55 -5 -74 6 -22
4 -33 -4 -33 -15 0 -38 51 -28 64 9 12 32 87 32 105 0 6 -4 11 -9 11 -6 0 -13
-20 -17 -45 -3 -25 -15 -57 -26 -71 -20 -25 -18 -39 5 -39 7 0 11 -11 9 -25
-5 -31 -5 -30 -3 -60 1 -20 3 -22 11 -10 5 8 10 11 10 5 0 -5 -4 -16 -9 -24
-6 -10 -10 -10 -16 -1 -6 9 -9 9 -16 -1 -14 -24 -22 -1 -22 63 1 38 7 75 17
93 18 34 20 63 6 85 -16 26 -29 -11 -15 -44 9 -21 -15 -42 -27 -23 -5 8 -8 3
-8 -11 0 -13 -5 -22 -12 -20 -25 5 -59 -23 -56 -44 4 -27 -18 -35 -24 -10 -4
13 -13 18 -29 17 -23 -2 -24 -5 -23 -61 1 -32 5 -83 8 -112 7 -59 8 -59 -52
-15 -18 13 -30 29 -26 34 3 5 1 8 -4 7 -12 -4 -72 58 -73 74 0 7 -2 28 -3 46
-2 17 0 32 4 32 17 0 25 78 18 168 -9 107 -23 139 -109 242 -53 64 -87 89 -98
72 -4 -6 -19 -16 -35 -22 -23 -8 -34 -7 -54 6 -14 9 -44 19 -66 20 -23 2 -46
11 -52 19 -9 12 -28 14 -105 8 -77 -5 -107 -12 -166 -39 -96 -45 -163 -47
-213 -5 -61 50 -96 61 -212 72 -98 8 -113 7 -129 -7 -10 -9 -16 -21 -12 -27 4
-6 0 -8 -11 -4 -10 4 -35 7 -56 7 -30 0 -40 5 -45 20 -9 30 -30 25 -117 -26
-80 -47 -110 -78 -145 -149 -21 -42 -37 -165 -25 -181 17 -20 33 -85 27 -106
-6 -17 -4 -20 11 -14 18 6 18 5 2 -8 -10 -7 -18 -16 -18 -19 0 -11 -62 -67
-74 -67 -6 0 -30 -18 -51 -40 -21 -22 -34 -40 -28 -40 6 0 16 7 24 16 16 19
69 47 76 40 6 -6 -58 -86 -69 -86 -5 0 -8 -5 -8 -12 0 -7 15 2 33 18 33 31 86
59 95 50 3 -3 -6 -14 -19 -25 l-24 -20 25 5 25 6 -25 -22 c-14 -12 -19 -18
-11 -14 9 5 12 3 7 -4 -9 -15 -56 -16 -56 -2 0 5 -21 -6 -46 -25 -47 -36 -77
-47 -55 -21 7 8 8 17 3 20 -6 3 -15 -1 -22 -9 -14 -17 -40 -20 -40 -6 0 6 5
13 10 16 6 4 8 15 5 25 -3 11 -1 28 4 39 9 17 8 18 -12 13 -12 -3 -27 -13 -34
-21 -10 -13 -10 -9 -1 16 7 17 17 29 22 26 6 -4 8 -3 4 2 -4 4 1 20 12 35 11
16 20 42 20 59 0 17 4 31 10 31 5 0 9 11 8 25 -1 14 -3 25 -4 25 -12 0 -42
-71 -38 -88 4 -13 -2 -31 -15 -48 -12 -15 -21 -32 -21 -39 0 -7 -9 -23 -21
-36 l-20 -24 4 36 c5 34 4 36 -19 31 -14 -2 -24 0 -24 7 0 6 4 11 10 11 5 0
12 11 16 25 3 14 14 29 23 34 8 5 13 12 9 16 -8 8 -49 -13 -65 -34 -11 -14
-14 -14 -23 -1 -5 8 -7 24 -4 35 4 16 3 17 -5 5 -16 -23 -25 -4 -22 52 1 31
-3 54 -10 59 -9 5 -6 15 8 35 33 46 33 98 2 160 l-26 54 -11 -27 c-20 -53 -22
-79 -3 -40 13 28 20 34 24 23 4 -9 2 -26 -3 -39 -16 -40 -24 -82 -21 -113 4
-51 -17 -50 -25 1 -3 25 -4 49 -1 52 4 3 2 14 -4 24 -6 13 -7 31 -1 53 7 23 6
50 -3 87 -7 30 -14 47 -15 39 -6 -54 -35 135 -33 218 0 23 -3 42 -7 42 -4 0
-8 6 -7 13 1 45 -4 77 -13 72 -17 -10 6 -504 24 -534 2 -3 9 -42 15 -86 8 -54
30 -125 67 -219 48 -120 55 -146 50 -183 -6 -43 -5 -43 34 -59 31 -12 40 -22
40 -39 0 -13 -4 -27 -10 -30 -17 -10 -11 -23 13 -29 27 -6 77 -50 77 -66 0 -6
-16 -18 -35 -27 -19 -9 -35 -20 -35 -24 0 -4 12 -18 28 -31 15 -12 35 -35 45
-50 17 -28 17 -28 -13 -60 -28 -29 -29 -33 -15 -52 36 -49 47 -90 42 -154 -3
-35 -7 -65 -10 -68 -3 -3 -19 1 -35 10 -42 22 -108 31 -117 17 -11 -20 5 -131
20 -131 7 0 15 -7 19 -15 3 -8 12 -15 20 -15 22 0 78 -55 74 -74 -2 -13 -15
-10 -74 19 -43 21 -99 39 -140 44 -69 10 -69 10 -101 -21 -17 -16 -37 -28 -45
-26 -16 6 -89 -43 -116 -77 -25 -32 -36 -32 -28 0 4 14 2 25 -4 25 -15 0 -43
-48 -37 -63 3 -8 2 -29 -3 -48 -4 -19 -8 -25 -9 -14 -1 22 -28 43 -75 57 -52
15 -186 39 -194 34 -18 -11 -4 -69 26 -100 33 -36 72 -122 65 -144 -3 -7 0
-19 7 -27 14 -16 24 -152 11 -159 -14 -9 -38 27 -45 68 -4 21 -16 55 -27 75
-10 20 -19 44 -19 53 0 17 -18 57 -31 68 -14 11 -29 50 -29 73 0 36 -23 49
-77 46 -26 -1 -56 1 -66 6 -13 5 -22 2 -33 -14 -8 -11 -19 -21 -24 -21 -5 0
-30 -14 -55 -32 l-46 -32 37 -11 c23 -6 40 -18 45 -32 9 -24 7 -25 -26 -27
-15 -1 -21 -9 -23 -36 -5 -52 -36 -80 -88 -80 -24 0 -46 4 -49 10 -15 25 -112
-9 -101 -35 4 -11 -2 -11 -27 -3 -18 6 -44 12 -60 15 -17 4 -27 12 -27 23 0
16 -58 66 -125 107 -41 26 -167 83 -179 82 -6 -1 -24 3 -41 10 -26 11 -39 10
-92 -9 -33 -12 -73 -20 -88 -18 l-27 3 23 29 22 29 -49 -28 c-27 -14 -58 -36
-69 -47 l-20 -21 25 7 c14 4 33 10 42 13 35 11 6 -38 -36 -59 -22 -11 -52 -30
-66 -40 -119 -93 -307 -282 -354 -356 l-30 -48 -97 0 c-73 1 -102 -3 -116 -14
-10 -9 -30 -22 -45 -30 -27 -13 -28 -15 -28 -99 1 -76 2 -84 15 -68 9 13 20
17 34 12 13 -4 23 0 29 10 5 9 12 16 15 16 36 -5 56 2 62 19 4 12 15 20 28 20
29 1 69 37 86 77 11 28 17 31 41 26 22 -4 31 0 39 16 6 11 17 18 25 15 8 -3
16 4 19 16 3 12 10 19 16 16 5 -4 12 -2 16 4 3 5 17 10 31 10 13 0 24 5 24 11
0 6 7 9 15 5 21 -8 67 15 61 30 -5 13 45 44 70 44 7 0 16 9 19 21 4 11 12 18
18 16 12 -4 27 8 89 70 55 55 79 57 152 8 48 -32 61 -36 76 -27 15 9 25 6 55
-14 20 -13 40 -22 45 -19 4 3 41 8 81 11 41 3 78 7 84 7 5 1 11 -9 13 -23 2
-14 13 -35 25 -47 l20 -23 -50 0 c-59 0 -103 -28 -103 -66 0 -28 30 -39 75
-26 21 6 38 5 57 -5 16 -8 47 -12 75 -9 27 2 53 0 60 -6 7 -5 34 -15 61 -22
l49 -13 -14 28 c-8 16 -29 36 -48 45 -18 8 -41 24 -51 35 -17 18 -16 19 28 19
33 0 50 6 64 21 11 12 26 18 37 15 11 -2 31 0 44 5 20 7 30 6 45 -8 15 -14 23
-15 38 -5 14 9 19 9 23 -1 2 -8 13 -8 44 2 23 8 49 11 58 7 9 -3 32 1 50 10
40 19 75 11 75 -17 0 -14 -13 -26 -43 -39 -48 -22 -85 -24 -155 -9 -46 9 -53
8 -111 -21 -33 -17 -61 -35 -61 -41 0 -5 15 -15 32 -23 47 -21 74 -47 99 -95
12 -23 34 -48 48 -56 15 -7 33 -20 40 -29 7 -8 19 -12 27 -9 8 3 14 0 14 -6 0
-6 -13 -12 -30 -13 -16 -1 -42 -3 -57 -4 -90 -9 -196 -9 -328 1 -82 7 -155 10
-162 8 -6 -3 -9 -11 -6 -19 9 -23 -24 -51 -67 -58 -21 -3 -41 -10 -44 -15 -3
-5 2 -38 11 -75 20 -82 12 -96 -57 -96 -27 0 -55 -3 -64 -6 -15 -6 -15 -9 12
-61 16 -31 15 -78 -2 -92 -7 -6 -34 -15 -60 -20 -59 -11 -74 -24 -55 -47 14
-17 14 -60 -1 -79 -4 -5 -10 -22 -12 -37 -5 -28 10 -49 44 -61 10 -4 15 -13
11 -25 -3 -12 1 -22 11 -25 10 -4 16 -1 16 8 0 17 33 75 43 75 4 0 7 -4 7 -9
0 -5 9 -13 20 -16 15 -5 20 -15 20 -40 0 -47 26 -36 40 16 6 21 13 39 15 39
12 0 45 -42 43 -55 -2 -7 0 -14 5 -14 31 -3 39 0 33 15 -4 10 1 22 11 29 14
11 20 9 35 -10 10 -13 18 -28 18 -34 0 -6 7 -11 15 -11 8 0 15 9 15 20 0 23
47 57 60 44 4 -5 10 -19 12 -32 1 -12 8 -21 13 -20 6 2 9 7 7 12 -2 5 5 17 14
27 20 22 54 9 54 -21 0 -11 7 -20 15 -20 8 0 15 6 15 13 0 20 22 44 47 51 18
6 22 2 25 -21 4 -37 38 -46 38 -10 0 23 4 25 45 25 24 -1 50 4 58 10 11 9 18
8 32 -8 23 -26 35 -25 35 0 0 25 25 36 45 20 12 -10 15 -9 15 3 0 10 6 14 14
11 7 -3 16 2 20 12 5 13 9 14 21 4 12 -10 16 -9 21 5 8 19 -20 85 -36 85 -19
0 -10 39 12 54 20 14 24 14 45 0 21 -13 24 -13 30 2 3 9 1 24 -5 33 -47 64
-66 148 -30 124 12 -7 31 -9 132 -12 25 -1 28 -4 21 -28 -3 -15 -20 -43 -36
-64 -30 -38 -36 -58 -19 -60 6 -1 15 -3 20 -4 6 -1 17 -3 26 -4 22 -1 11 -45
-22 -88 -30 -39 -30 -53 -2 -50 15 1 26 -5 33 -20 5 -13 15 -23 21 -23 7 0 14
-6 17 -14 4 -9 14 -12 26 -9 15 4 21 13 21 34 0 40 16 44 41 9 28 -37 34 -38
48 0 5 17 14 30 18 30 19 -1 35 -19 30 -34 -5 -12 0 -16 19 -16 21 0 24 4 19
20 -4 12 1 27 12 39 17 19 19 19 40 1 12 -9 25 -29 29 -44 5 -21 9 -24 20 -15
8 6 14 24 14 39 0 14 3 30 7 34 11 11 53 -45 53 -71 0 -33 29 -27 43 10 4 10
17 17 32 17 22 0 25 -3 20 -20 -8 -25 10 -50 36 -50 14 0 21 9 25 29 6 31 34
52 34 26 0 -8 -4 -15 -9 -15 -5 0 -7 -9 -4 -21 8 -30 55 -22 64 11 5 17 7 19
8 7 2 -30 20 -9 32 36 6 23 15 47 21 54 13 16 36 6 43 -18 5 -14 12 -18 26
-14 12 4 21 1 25 -10 6 -14 8 -14 25 1 18 16 20 16 33 -1 7 -10 18 -15 24 -11
7 4 21 0 33 -8 12 -8 27 -12 34 -10 7 3 16 1 20 -5 3 -6 12 -11 18 -11 7 0 -7
18 -31 40 -24 22 -51 40 -61 40 -19 0 -51 30 -51 48 0 6 -24 27 -54 47 -40 26
-61 34 -79 30 -46 -12 -91 99 -57 140 7 9 14 37 15 64 1 26 5 53 9 59 10 16
36 15 36 -2 0 -9 8 -12 26 -8 23 4 25 2 19 -17 -5 -16 -3 -22 7 -20 7 1 22 1
33 0 19 -2 19 -2 2 -16 -18 -13 -17 -14 5 -17 17 -2 22 -8 20 -25 -4 -29 3
-29 31 1 12 13 33 27 47 31 20 6 23 5 13 -6 -21 -22 -15 -32 17 -25 34 6 34 7
20 -29 -9 -23 -7 -28 10 -32 20 -5 29 -33 10 -33 -5 0 -10 -9 -10 -21 0 -11 3
-19 8 -17 56 29 86 38 95 29 6 -6 8 -11 4 -11 -4 0 9 -22 28 -50 19 -27 35
-54 35 -60 0 -16 9 -12 36 17 17 19 27 24 31 16 2 -7 11 -13 18 -13 7 0 26
-10 41 -22 41 -33 164 -162 164 -171 0 -5 23 -34 50 -65 28 -31 50 -60 50 -65
0 -9 35 -56 65 -88 8 -9 15 -23 15 -32 0 -10 5 -17 10 -17 6 0 10 -8 10 -19 0
-10 7 -24 15 -31 9 -8 14 -25 13 -40 -4 -28 -45 -80 -64 -80 -6 0 -17 -7 -24
-15 -7 -8 -21 -15 -31 -15 -10 0 -22 -6 -26 -14 -4 -8 -17 -15 -28 -18 -11 -2
-18 -8 -15 -13 3 -6 8 -9 12 -8 10 4 3 -39 -11 -66 -13 -23 -13 -22 -37 25
-13 27 -24 63 -24 79 -1 28 -2 29 -10 7 -8 -19 -13 -21 -29 -13 -11 6 -36 7
-62 3 -32 -6 -62 -3 -109 11 -64 18 -166 40 -185 39 -20 -1 -132 -11 -184 -17
-29 -3 -67 -13 -83 -21 -45 -23 -64 -27 -178 -30 -63 -2 -109 1 -117 8 -8 6
-27 7 -50 2 -21 -4 -45 -7 -53 -7 -107 11 -251 9 -292 -4 -49 -16 -64 -33 -28
-33 11 0 20 -5 20 -10 0 -6 12 -23 26 -38 14 -15 38 -45 52 -67 15 -22 31 -43
36 -47 14 -10 -5 -46 -58 -111 -25 -31 -46 -59 -46 -62 0 -3 358 -5 795 -5
l795 0 -12 25 c-6 14 -15 25 -19 25 -5 0 -18 19 -30 42 -19 37 -21 52 -15 120
5 61 4 78 -7 78 -7 0 -18 -5 -24 -11 -7 -7 -12 -6 -16 5 -5 12 0 16 18 16 14
0 25 5 25 12 0 28 23 -14 60 -111 45 -120 55 -134 86 -127 13 4 24 1 27 -7 3
-7 12 -2 27 16 12 15 25 26 28 23 3 -3 11 -1 19 5 20 17 37 -3 53 -61 l14 -50
59 0 c45 0 63 4 72 17 13 17 14 17 32 0 11 -9 33 -17 49 -17 32 0 134 44 146
63 4 6 10 8 14 4 4 -4 -5 -21 -21 -37 l-29 -30 122 0 c67 0 121 3 121 8 -5 29
6 57 41 101 49 61 126 120 158 121 27 0 118 -67 218 -162 l71 -68 304 0 304 0
27 48 c31 54 197 267 258 329 35 36 44 41 68 34 63 -19 253 -154 266 -191 3
-8 17 -27 30 -41 13 -14 32 -41 41 -60 10 -19 31 -53 49 -76 l31 -42 150 -1
150 0 55 67 c30 37 88 103 129 148 40 44 83 97 95 119 36 66 43 76 65 100 11
12 21 26 21 30 0 18 44 68 67 77 47 17 97 -22 228 -181 47 -58 55 -74 70 -144
9 -44 18 -83 21 -87 2 -4 0 -10 -6 -14 -6 -3 -19 14 -30 40 -11 25 -42 70 -70
99 -27 29 -50 59 -50 67 -1 19 -24 49 -39 49 -6 0 -14 7 -17 15 -4 8 -14 15
-23 15 -9 0 -22 13 -29 30 -13 29 -32 41 -32 20 0 -5 -6 -10 -14 -10 -8 0 -18
-9 -21 -20 -3 -11 -12 -20 -18 -20 -7 0 -21 -19 -32 -41 -10 -22 -31 -50 -45
-62 -15 -12 -43 -47 -63 -78 -20 -31 -46 -64 -57 -74 -11 -10 -20 -22 -20 -27
0 -13 -56 -68 -68 -68 -5 0 -12 -11 -14 -25 l-5 -25 142 0 c99 0 153 4 176 14
36 15 135 11 145 -5 3 -5 52 -9 108 -9 101 0 105 1 162 35 32 19 61 35 66 35
4 0 8 97 8 215 l0 215 -27 0 c-14 0 -23 3 -20 7 4 3 2 12 -4 20 -9 10 -4 20
20 45 28 29 31 37 31 99 l0 67 -46 -3 c-37 -2 -44 0 -40 12 5 11 2 13 -10 9
-8 -3 -20 -6 -25 -6 -11 0 -12 -33 0 -45 13 -16 34 -103 28 -120 -8 -19 -50
-19 -88 1 -17 8 -42 14 -57 12 -22 -3 -27 2 -35 32 -8 26 -11 30 -15 16 -4
-18 -5 -18 -22 5 -10 13 -22 20 -27 16 -4 -5 -1 -12 7 -17 8 -5 11 -12 8 -15
-10 -10 -28 4 -28 20 0 20 -39 40 -53 26 -7 -7 -16 -7 -29 0 -12 7 -18 6 -18
-1 0 -6 -5 -8 -11 -4 -6 3 -15 0 -20 -7 -7 -11 -12 -12 -29 -1 -16 10 -20 10
-20 -1 0 -7 -20 -17 -45 -23 -25 -6 -45 -7 -45 -4 0 4 -22 -3 -48 -16 -26 -12
-59 -25 -72 -27 -49 -8 -80 -26 -80 -46 0 -14 -5 -19 -15 -15 -8 4 -15 2 -15
-2 0 -5 -15 -9 -32 -8 -19 0 -41 -8 -51 -18 -9 -9 -24 -15 -32 -12 -10 4 -15
0 -15 -14 0 -14 -8 -22 -22 -24 -15 -2 -22 -9 -22 -20 2 -27 -25 -7 -65 45
-25 34 -44 48 -77 57 -24 7 -49 19 -55 26 -6 8 -24 14 -40 14 -19 0 -29 5 -29
14 0 8 -4 17 -9 21 -12 7 -101 -17 -101 -27 0 -4 -11 -3 -24 3 -20 9 -27 8
-46 -11 -21 -21 -23 -21 -41 -4 -17 15 -19 15 -19 1 0 -15 -12 -22 -57 -32
-10 -2 -36 -9 -58 -15 -22 -6 -51 -13 -63 -15 -13 -2 -26 -6 -29 -9 -4 -3 -13
-1 -20 6 -10 8 -17 8 -21 2 -4 -6 -25 -11 -46 -11 -26 -1 -44 -7 -53 -20 -9
-12 -16 -14 -21 -7 -11 18 -102 24 -109 8 -7 -19 -23 -7 -23 17 0 16 -5 19
-19 14 -46 -14 -32 78 14 95 29 11 185 7 204 -5 19 -11 100 -14 107 -4 3 5 25
9 50 9 27 0 52 6 60 15 9 8 29 15 45 15 16 0 32 6 35 14 3 8 29 16 67 20 49 5
67 11 85 31 12 15 22 35 22 46 0 10 5 28 12 38 23 38 -22 81 -49 45 -8 -11
-28 -19 -49 -21 -20 -1 -41 -7 -48 -12 -7 -6 -16 -7 -20 -3 -4 4 -13 0 -19 -8
-17 -22 -56 -36 -107 -39 -25 -1 -50 -8 -55 -16 -12 -14 -85 -18 -85 -4 0 5
-7 9 -15 9 -8 0 -15 -7 -15 -15 0 -21 -19 -19 -59 6 -18 11 -39 18 -46 15 -7
-2 -21 2 -32 9 -26 20 -33 18 -33 -10 0 -30 -11 -32 -35 -5 -15 16 -21 17 -39
8 -11 -7 -30 -13 -41 -15 -11 -2 -23 -10 -28 -18 -5 -10 -16 -13 -32 -9 -17 4
-26 0 -35 -16 -8 -15 -17 -19 -31 -15 -11 4 -19 2 -19 -6 0 -15 30 -38 51 -39
22 0 59 -42 59 -68 0 -33 -32 -61 -53 -48 -13 8 -20 7 -27 -4 -5 -8 -12 -11
-16 -8 -4 4 -16 2 -28 -4 -26 -15 -84 -20 -91 -8 -3 4 13 38 36 75 37 61 44
95 20 95 -5 0 -12 -7 -15 -16 -4 -11 -10 -13 -23 -6 -10 6 -26 6 -39 2 -15 -6
-24 -5 -27 3 -3 9 -11 9 -37 0 -24 -9 -37 -9 -46 -2 -7 6 -23 7 -36 3 -26 -8
-94 -7 -149 2 -25 3 -41 1 -51 -9 -8 -8 -29 -18 -47 -22 -46 -10 -115 -77
-106 -104 4 -12 2 -21 -4 -21 -6 0 -11 5 -11 10 0 19 -57 -19 -78 -52 -23 -36
-20 -53 8 -38 10 5 33 10 51 10 29 0 90 13 129 28 8 3 22 6 30 7 8 1 47 7 85
14 111 18 223 21 235 6 13 -16 -2 -60 -25 -69 -25 -9 -60 -7 -71 4 -8 8 -19 7
-39 0 -15 -6 -36 -8 -47 -4 -12 3 -27 -1 -39 -12 -15 -13 -19 -14 -19 -3 0 20
-103 14 -136 -7 -13 -9 -24 -12 -24 -7 0 8 -45 10 -60 3 -3 -1 -15 -1 -27 0
-13 1 -23 -4 -23 -10 0 -8 -10 -9 -29 -5 -20 4 -30 2 -34 -8 -4 -10 -23 -15
-58 -16 -65 -1 -94 -25 -150 -128 -22 -39 -45 -76 -52 -81 -15 -12 -124 -52
-141 -52 -22 0 -50 68 -36 85 6 8 9 19 5 25 -3 5 3 22 14 36 12 15 21 31 21
37 0 15 109 156 130 167 11 6 20 19 20 29 0 10 9 26 20 36 11 10 20 24 20 32
0 7 14 32 30 55 17 22 30 50 30 61 0 10 11 28 25 39 14 11 25 25 25 32 0 15
148 166 162 166 6 0 27 16 47 36 32 33 96 63 169 81 12 3 22 13 22 23 0 25 41
49 72 43 15 -3 36 -14 47 -24 11 -10 28 -20 38 -22 10 -2 33 -18 52 -35 38
-37 40 -33 -43 -115 -21 -21 -35 -41 -31 -45 7 -7 199 -5 225 3 13 4 66 71 91
115 7 12 15 12 59 -4 l51 -18 62 32 c41 22 76 33 104 33 27 0 44 5 48 15 4 12
8 12 21 2 8 -8 28 -15 44 -17 17 -1 43 -5 60 -6 16 -2 38 -11 49 -21 15 -13
31 -16 77 -11 32 3 63 10 68 15 6 6 20 10 33 10 26 0 64 19 76 38 5 7 12 10
17 7 5 -3 11 -1 15 5 3 5 -1 10 -9 10 -29 0 -16 30 27 61 52 38 73 72 54 91
-21 22 -39 70 -29 80 5 5 42 17 83 27 63 14 73 20 71 36 -2 11 -15 29 -28 42
-50 46 -22 76 71 74 36 0 65 2 65 5 0 4 -9 22 -21 40 -11 19 -18 38 -14 44 9
15 116 9 143 -7 21 -13 22 -17 10 -36 -22 -34 -12 -54 30 -59 20 -3 52 -1 71
4 47 13 55 0 32 -53 -37 -87 -37 -89 6 -89 22 0 43 4 49 9 5 5 24 12 43 16
l33 7 -7 -33 c-4 -19 -12 -52 -18 -74 -17 -60 -16 -60 43 -60 48 0 56 -3 67
-25 10 -19 19 -24 40 -21 15 1 33 6 38 9 13 8 47 12 179 16 l109 4 33 -35 c19
-20 34 -39 34 -43 0 -13 35 -37 63 -44 23 -6 34 0 72 40 37 38 43 49 35 65
-13 23 -26 24 -34 2 -9 -23 -27 -3 -20 22 3 12 32 43 65 70 49 41 57 51 42 56
-10 4 -21 5 -25 2 -5 -2 -8 3 -8 11 0 9 -4 16 -10 16 -17 0 -11 26 10 45 24
22 25 42 5 81 -12 25 -12 35 -1 69 15 43 13 55 -10 55 -9 0 -14 11 -14 33 0
25 -6 35 -27 45 -36 16 -40 15 -46 -8 -8 -32 -33 -23 -64 22 -34 51 -59 63
-49 25 5 -20 1 -29 -13 -36 -23 -13 -51 14 -51 47 0 30 -24 28 -53 -4 -22 -24
-25 -24 -41 -9 -9 9 -16 22 -16 29 0 6 -11 13 -25 14 -16 1 -25 -3 -25 -12 0
-28 -30 -26 -57 4 -31 36 -35 36 -48 8 -15 -32 -29 -32 -42 2 -15 41 -50 41
-64 1 -13 -36 -36 -31 -41 7 -3 26 -5 27 -73 27 -99 1 -228 -18 -259 -38 -14
-9 -35 -17 -46 -17 -11 0 -23 -6 -26 -14 -3 -8 -25 -17 -50 -21 -24 -3 -44
-10 -44 -16 0 -5 -9 -9 -20 -9 -12 0 -37 -8 -58 -18 -20 -11 -59 -25 -87 -32
-27 -7 -54 -16 -60 -21 -5 -4 -23 -9 -40 -12 -57 -9 -90 -19 -100 -31 -5 -6
-32 -17 -60 -24 -27 -7 -58 -20 -67 -29 -9 -8 -24 -13 -32 -10 -8 3 -50 -3
-93 -14 -85 -20 -187 -25 -227 -9 -24 9 -26 8 -21 -13 17 -77 25 -161 15 -171
-5 -5 -10 -17 -10 -26 0 -15 -64 -80 -79 -80 -3 0 -12 -9 -19 -20 -11 -18 -9
-23 23 -41 19 -12 35 -24 35 -28 0 -4 -19 -20 -42 -35 -28 -18 -49 -25 -65
-21 -28 7 -29 19 -2 56 19 27 19 29 2 29 -10 0 -31 -14 -47 -30 -16 -17 -34
-30 -41 -30 -17 0 -76 -46 -68 -53 3 -4 -4 -7 -16 -7 l-23 0 23 19 c22 17 23
22 12 50 -11 30 -11 31 18 31 36 0 37 12 2 40 l-27 21 -8 -20 c-4 -12 -11 -21
-15 -21 -4 0 -25 -4 -45 -9 -28 -7 -35 -6 -31 4 7 19 -32 28 -59 14 -23 -12
-23 -11 2 15 21 23 22 29 10 37 -20 12 -55 3 -91 -23 -32 -24 -46 -20 -30 10
7 13 7 22 -1 30 -9 9 -9 12 0 12 7 0 12 6 12 13 0 7 23 37 50 67 28 30 65 72
83 93 18 21 44 51 60 67 15 17 27 38 27 48 0 24 27 48 62 57 15 4 32 13 39 21
14 17 77 9 132 -17 31 -14 43 -16 58 -6 15 9 25 8 49 -6 46 -27 115 -8 93 25
-14 23 -12 68 4 68 11 0 13 7 8 32 -4 18 -12 36 -18 40 -7 4 -7 11 1 21 10 12
9 16 -4 21 -10 4 -25 -3 -40 -19 -13 -14 -34 -25 -49 -25 -26 0 -34 -15 -12
-23 6 -2 9 -7 6 -11 -20 -22 -69 42 -69 91 0 36 -26 28 -51 -17 -23 -40 -65
-77 -77 -66 -3 4 -6 34 -7 69 -1 48 4 72 22 107 13 24 23 51 21 60 -1 8 3 25
10 37 11 19 9 26 -9 44 -18 18 -20 29 -16 77 8 85 12 103 26 111 7 4 13 22 13
40 1 17 7 36 14 42 8 6 16 27 20 48 9 49 38 87 71 95 90 21 178 106 110 106
-13 0 -32 7 -43 16 -17 14 -13 15 56 8 41 -4 101 -8 133 -9 42 -1 61 -6 70
-19 17 -23 75 -35 104 -21 13 5 23 13 23 17 0 21 76 89 111 99 34 11 37 14 32
40 -4 21 1 34 18 51 30 30 25 40 -54 131 -72 81 -93 90 -123 51 -13 -15 -26
-26 -29 -22 -3 3 -7 34 -9 68 -3 51 -8 66 -30 88 -22 22 -28 24 -36 13 -7 -12
-11 -12 -24 -2 -9 8 -16 20 -16 28 0 18 -131 153 -149 153 -8 0 -11 6 -7 15 3
9 -4 24 -18 36 -13 12 -27 36 -30 54 -5 22 -20 44 -49 68 -23 19 -60 51 -81
71 -22 20 -45 36 -51 36 -7 0 -17 -31 -24 -70 -7 -38 -17 -70 -21 -70 -11 0
-23 36 -25 70 -3 73 -19 121 -48 150 -29 28 -30 32 -20 72 6 24 23 75 37 113
46 122 83 300 106 505 13 110 25 176 37 210 3 8 5 23 4 34 -2 10 1 16 6 13 9
-6 9 6 -3 101 -9 69 -21 48 -28 -49z m-1591 -519 c52 -20 142 -22 204 -4 71
19 272 17 293 -4 6 -6 24 -12 39 -12 15 0 47 -15 72 -32 89 -64 158 -120 154
-125 -15 -14 -84 -10 -119 7 -21 10 -56 21 -78 25 l-40 7 0 -49 c0 -28 -6 -58
-15 -69 -21 -28 -19 -32 20 -40 19 -3 39 -12 46 -20 16 -19 33 -18 78 6 34 17
41 17 51 5 6 -8 9 -23 5 -35 -5 -16 -2 -20 17 -20 16 0 28 -10 39 -33 9 -17
26 -37 38 -43 16 -8 19 -13 9 -17 -7 -3 1 -6 17 -7 17 -1 22 -4 13 -7 -10 -2
-15 -10 -11 -19 4 -10 0 -12 -11 -8 -23 9 -22 -54 2 -72 16 -12 16 -13 0 -14
-22 0 -27 -30 -10 -57 9 -15 10 -23 2 -28 -15 -9 -37 11 -44 41 -5 18 -12 24
-22 20 -9 -3 -20 -6 -25 -6 -16 0 -10 -26 12 -51 15 -17 17 -25 7 -28 -7 -2
-16 -9 -20 -14 -4 -7 -15 -1 -27 14 -11 13 -20 21 -21 18 0 -13 27 -59 32 -53
4 3 9 0 13 -6 5 -8 -6 -10 -41 -6 -37 5 -44 4 -26 -4 26 -11 41 -42 24 -48 -8
-2 -3 -14 13 -34 31 -37 31 -40 0 -75 l-24 -28 -1 42 c0 24 -9 57 -20 75 -13
21 -20 27 -20 16 0 -9 5 -20 10 -23 6 -3 10 -14 10 -23 -1 -14 -2 -14 -12 3
-11 18 -12 18 -18 1 -5 -15 -11 -9 -31 28 -30 58 -48 60 -43 5 2 -25 -2 -49
-10 -61 -14 -19 -14 -19 -20 -1 -6 20 -36 28 -36 10 0 -5 -6 -5 -13 1 -10 9
-20 -1 -42 -43 -15 -30 -30 -53 -32 -52 -6 6 19 67 27 67 4 0 10 14 14 31 6
32 -9 64 -25 53 -5 -3 -9 0 -9 5 0 6 -4 11 -10 11 -5 0 -10 -9 -10 -20 0 -11
5 -20 10 -20 6 0 10 -7 10 -15 0 -9 -6 -12 -17 -8 -13 5 -15 2 -11 -15 4 -12
2 -20 -3 -16 -5 3 -9 11 -9 19 0 7 -7 15 -15 19 -8 3 -15 16 -15 28 0 13 -9
34 -19 47 -16 21 -20 22 -42 10 -13 -8 -25 -14 -27 -15 -1 -1 0 -9 4 -18 5
-14 9 -14 22 -4 13 11 14 9 8 -12 -7 -24 -6 -24 8 -6 15 19 16 18 16 -11 0
-18 -4 -35 -10 -38 -5 -3 -10 -28 -10 -56 0 -45 -13 -66 -22 -37 -3 7 -7 6
-11 -5 -3 -9 -2 -17 3 -17 6 0 10 -21 9 -47 0 -43 -2 -45 -11 -25 -7 14 -17
21 -26 17 -12 -5 -14 4 -8 49 3 30 3 62 0 70 -9 23 -27 20 -19 -4 7 -22 -15
-112 -23 -91 -3 10 -9 8 -23 -10 -17 -22 -19 -23 -19 -4 0 18 -2 17 -13 -5 -9
-17 -20 -24 -36 -22 -16 1 -22 -2 -18 -11 9 -24 -6 -37 -26 -22 -16 12 -16 14
12 37 30 26 55 108 32 108 -11 0 -15 -19 -11 -54 1 -11 -3 -16 -12 -14 -8 3
-12 18 -10 42 2 25 -1 36 -7 31 -6 -3 -11 -24 -11 -45 0 -40 -17 -90 -31 -90
-25 0 -39 15 -40 44 0 17 -4 40 -9 51 -8 19 -9 19 -9 1 -1 -11 -3 -17 -6 -14
-8 8 15 107 27 114 7 5 9 -4 6 -25 -3 -19 1 -36 9 -42 10 -9 12 -5 9 19 -4 38
27 75 38 46 3 -9 1 -23 -5 -31 -19 -22 -1 -28 22 -7 12 10 24 18 28 16 3 -2 9
13 12 33 l6 36 -21 -20 c-26 -24 -43 -9 -42 37 1 21 -4 32 -13 32 -9 0 -12 9
-9 30 5 35 -5 39 -26 8 -15 -21 -13 -43 4 -33 10 6 20 -32 13 -51 -9 -25 -24
-15 -17 12 5 19 4 25 -5 20 -6 -4 -11 -16 -11 -27 0 -11 -4 -18 -10 -14 -5 3
-6 13 -3 21 5 14 3 15 -15 5 -30 -16 -33 -14 -21 15 14 38 4 41 -11 4 -13 -31
-34 -43 -23 -12 6 15 5 15 -11 2 -14 -11 -17 -23 -13 -55 3 -22 2 -47 -3 -55
-7 -11 -10 -6 -11 20 0 19 -3 29 -6 23 -7 -20 -33 -15 -33 5 0 10 6 24 13 32
6 8 1 6 -12 -5 l-24 -20 7 27 c7 31 -6 44 -24 23 -19 -22 -32 -18 -20 6 13 22
4 42 -9 21 -10 -17 -44 -4 -37 14 3 8 1 14 -4 14 -6 0 -10 -8 -10 -18 0 -24
-29 -63 -31 -42 -1 8 -1 21 0 29 2 7 -2 10 -8 6 -6 -3 -11 -1 -11 4 0 6 -9 11
-20 11 -11 0 -19 -3 -19 -7 4 -26 -3 -54 -20 -74 l-19 -24 5 30 c3 17 12 38
21 48 10 11 11 17 4 17 -7 0 -12 9 -12 19 0 13 -6 18 -17 16 -10 -2 -22 -4
-28 -4 -5 -1 -4 -5 4 -10 8 -5 9 -11 3 -15 -5 -3 -13 2 -17 12 -4 11 1 22 14
31 29 19 26 32 -4 21 -16 -6 -25 -6 -25 0 0 15 33 50 47 50 7 0 13 5 13 10 0
6 -6 10 -14 10 -11 0 -13 9 -9 36 l6 35 -38 -25 c-21 -14 -47 -26 -59 -25 -20
0 -20 1 2 11 18 9 22 17 17 35 -3 13 -1 23 4 23 11 0 2 42 -11 51 -5 3 -4 17
1 32 8 21 8 27 -4 27 -23 0 -28 21 -6 27 12 3 21 10 21 15 0 5 -9 7 -19 3 -16
-5 -19 -1 -18 15 1 11 5 21 9 21 4 1 11 3 16 4 4 1 21 6 39 10 24 6 33 14 38
36 8 34 14 35 46 11 13 -10 43 -28 66 -40 l43 -21 22 23 c24 26 73 36 97 22 9
-6 12 -5 7 2 -3 5 0 12 6 15 10 3 9 9 -4 23 -17 17 -18 17 -37 0 -24 -22 -61
-13 -61 14 0 10 -9 22 -20 25 -28 9 -42 39 -31 66 l8 23 12 -22 c16 -31 28
-27 28 8 0 30 -1 30 -53 30 -29 0 -76 -5 -105 -11 -44 -9 -54 -9 -67 5 -14 14
-14 18 -2 30 8 8 34 17 57 20 23 3 66 17 94 32 40 20 54 23 60 13 6 -10 11
-10 21 -1 32 26 230 42 283 22z m570 -200 c-7 -31 -27 -36 -33 -8 -3 16 26 53
35 44 3 -2 2 -19 -2 -36z m-1689 -84 c0 -15 -5 -21 -10 -16 -5 5 -6 16 -3 24
9 23 15 19 13 -8z m2329 -146 c-2 -8 -7 -41 -11 -73 -4 -33 -10 -53 -14 -47
-6 9 -10 6 -14 -8 -4 -11 -14 -23 -22 -26 -13 -5 -14 0 -9 24 4 19 3 30 -4 30
-6 0 -12 -10 -12 -22 -2 -21 -2 -21 -6 -3 -2 11 14 58 37 103 22 45 41 90 41
100 1 9 5 -1 9 -23 4 -22 6 -46 5 -55z m107 -2 c-7 -7 -12 -8 -12 -2 0 6 3 14
7 17 3 4 9 5 12 2 2 -3 -1 -11 -7 -17z m-2342 -42 c0 -3 -4 -8 -10 -11 -5 -3
-10 -1 -10 4 0 6 5 11 10 11 6 0 10 -2 10 -4z m224 -101 c-4 -8 -11 -15 -16
-15 -6 0 -5 6 2 15 7 8 14 15 16 15 2 0 1 -7 -2 -15z m94 -1 c-2 -9 -16 -26
-31 -38 -24 -18 -29 -19 -37 -6 -7 10 -5 16 4 18 8 2 16 12 19 23 6 24 50 27
45 3z m1690 4 c7 -7 12 -24 12 -39 0 -14 5 -40 11 -57 7 -21 8 -41 2 -59 l-10
-28 -7 37 c-4 22 -16 42 -31 52 -14 9 -25 12 -25 6 0 -5 5 -10 10 -10 14 0 12
-26 -2 -37 -9 -7 -23 2 -48 31 -19 23 -28 35 -20 29 8 -7 22 -13 32 -13 24 0
20 39 -7 62 -20 16 -20 17 5 27 34 14 64 13 78 -1z m82 -43 c0 -8 -2 -15 -4
-15 -2 0 -6 7 -10 15 -3 8 -1 15 4 15 6 0 10 -7 10 -15z m-1797 -56 c3 -12 3
-18 0 -15 -4 3 -12 -3 -20 -14 -15 -21 -43 -27 -43 -10 0 5 -7 7 -15 4 -8 -4
-15 -2 -15 2 0 10 60 40 73 36 4 -1 7 3 7 8 0 17 7 11 13 -11z m141 -36 c-34
-51 -51 -59 -56 -28 -4 17 -1 25 8 25 8 0 14 8 15 18 0 14 2 14 8 -3 8 -19 8
-19 20 3 6 12 16 22 21 22 5 0 -2 -17 -16 -37z m1476 -15 c0 -18 -17 -7 -29
19 -13 28 -13 28 8 9 12 -11 21 -23 21 -28z m-106 17 c-4 -8 -8 -15 -10 -15
-2 0 -4 7 -4 15 0 8 4 15 10 15 5 0 7 -7 4 -15z m37 2 c-1 -4 -1 -19 -1 -34 0
-25 -1 -26 -14 -8 -14 20 -10 58 6 53 5 -2 9 -7 9 -11z m-1491 -9 c0 -7 -4
-19 -9 -27 -8 -12 -12 -11 -27 3 -14 15 -15 19 -3 27 20 13 39 11 39 -3z m-30
-58 c0 -5 -5 -10 -11 -10 -5 0 -7 5 -4 10 3 6 8 10 11 10 2 0 4 -4 4 -10z
m1957 -299 c-2 -149 -10 -262 -21 -331 -22 -134 -28 -200 -18 -200 4 0 6 -16
4 -36 -3 -28 0 -39 17 -50 27 -20 27 -36 -4 -72 -26 -31 -33 -48 -15 -37 6 3
10 1 10 -4 0 -6 -4 -11 -10 -11 -5 0 -16 -12 -23 -27 -22 -40 -179 -193 -200
-193 -17 0 -76 -50 -60 -50 4 -1 -9 -10 -29 -21 -21 -11 -38 -24 -38 -30 0
-20 -52 -57 -145 -106 -76 -39 -174 -77 -315 -121 -19 -6 -102 -20 -185 -32
-120 -18 -174 -20 -270 -15 -190 10 -255 22 -387 65 -141 47 -238 96 -254 129
-8 16 -13 19 -17 9 -4 -10 -6 -10 -6 0 -1 7 6 15 14 18 8 4 15 13 15 22 0 8 3
12 6 9 10 -10 64 32 76 58 8 17 5 31 -11 63 -12 23 -21 50 -21 62 0 11 -7 20
-15 20 -15 0 -19 10 -16 41 1 9 -12 42 -29 73 -16 32 -30 67 -30 77 0 11 -7
22 -15 25 -8 4 -15 17 -15 29 0 13 -4 27 -10 30 -5 3 -10 17 -10 30 0 13 -4
27 -10 30 -5 3 -10 17 -10 31 0 13 -4 32 -9 42 -13 23 -32 120 -42 211 -4 42
-15 132 -23 201 -20 167 -21 260 -2 260 8 0 23 -13 33 -30 9 -16 23 -30 31
-30 19 0 62 -30 62 -44 0 -7 11 -22 25 -34 16 -14 22 -27 18 -38 -5 -13 -2
-16 10 -11 13 5 17 1 17 -14 0 -14 10 -25 30 -32 17 -6 30 -15 30 -19 0 -4 6
-8 14 -8 8 0 17 -9 21 -20 3 -10 22 -25 41 -32 29 -10 35 -17 31 -36 -3 -18
-1 -21 14 -17 12 4 22 -2 31 -17 12 -22 14 -28 17 -55 0 -7 7 -13 15 -13 9 0
12 7 9 23 -5 20 -2 19 21 -8 14 -16 23 -36 21 -42 -2 -7 3 -13 11 -13 8 0 13
4 9 9 -3 6 2 14 11 19 11 6 13 11 5 16 -20 13 -12 28 12 21 38 -11 67 -28 61
-37 -3 -4 7 -9 23 -10 37 -2 66 -6 76 -8 4 -1 12 -3 17 -4 6 0 14 -6 18 -11 4
-6 37 -18 74 -26 66 -16 67 -16 92 8 14 13 21 18 16 11 -19 -23 -11 -43 18
-45 15 -1 33 3 40 9 8 7 12 7 12 0 0 -11 39 -10 58 2 7 4 12 3 12 -2 0 -6 10
-5 25 1 14 7 25 15 25 20 0 4 7 7 15 7 9 0 12 -6 9 -15 -5 -12 2 -15 27 -15
26 0 30 3 19 10 -13 8 -12 10 3 10 9 0 17 -4 17 -8 0 -4 19 -8 41 -7 28 1 46
7 55 20 8 10 14 15 14 10 0 -5 5 -4 12 3 17 17 31 15 24 -3 -4 -12 -2 -13 17
-2 12 6 27 19 34 27 10 13 12 13 18 -2 9 -24 25 -23 25 1 0 14 5 18 19 14 18
-5 95 30 86 39 -3 3 4 13 15 23 18 17 20 17 20 1 0 -9 5 -14 10 -11 6 4 18 1
26 -6 11 -9 18 -9 26 -1 9 9 9 12 -1 12 -7 0 -9 5 -6 10 3 6 13 10 21 10 16 0
30 10 73 53 16 15 33 27 40 27 6 0 11 7 11 15 0 8 7 15 15 15 9 0 19 10 24 23
5 12 26 38 47 57 20 19 34 29 30 23 -4 -7 -2 -13 4 -13 6 0 13 7 16 15 4 8 10
12 15 9 5 -3 19 16 30 42 12 26 39 64 60 85 22 21 39 42 39 46 0 4 12 25 27
46 l27 39 9 -32 c5 -18 7 -135 4 -259z m-1581 235 c3 -8 -6 -32 -21 -53 -26
-37 -26 -38 -19 -8 4 17 11 36 17 43 6 8 6 12 -2 12 -6 0 -11 5 -11 10 0 15
30 12 36 -4z m259 -34 c-3 -17 -13 -33 -20 -36 -11 -4 -13 2 -8 27 6 29 22 51
31 42 2 -2 1 -17 -3 -33z m-473 6 c-7 -7 -12 -8 -12 -2 0 6 3 14 7 17 3 4 9 5
12 2 2 -3 -1 -11 -7 -17z m305 -116 c-10 -13 -13 -6 -17 39 -3 30 -1 63 4 74
8 16 12 9 18 -39 5 -42 4 -64 -5 -74z m793 90 c0 -19 -5 -29 -15 -29 -11 0
-12 4 -5 11 5 5 10 18 10 28 0 10 2 18 5 18 3 0 5 -13 5 -28z m57 -44 c-3 -7
-5 -2 -5 12 0 14 2 19 5 13 2 -7 2 -19 0 -25z m-807 -5 c-1 -24 -2 -26 -11
-10 -5 9 -7 22 -4 27 10 17 15 11 15 -17z m-129 -6 c-10 -9 -11 -8 -5 6 3 10
9 15 12 12 3 -3 0 -11 -7 -18z m862 -12 c4 -8 2 -17 -3 -20 -6 -4 -10 3 -10
14 0 25 6 27 13 6z m-82 -23 c-6 -12 -11 -30 -11 -41 0 -12 -7 -21 -15 -21
-12 0 -13 4 -5 18 5 9 15 30 20 46 6 16 13 26 16 23 3 -3 1 -14 -5 -25z m-740
-9 c-12 -20 -14 -14 -5 12 4 9 9 14 11 11 3 -2 0 -13 -6 -23z m156 -18 c1 -25
-2 -45 -8 -45 -6 0 -7 5 -4 10 3 6 1 10 -4 10 -15 0 -14 43 1 58 7 7 12 12 13
12 0 0 1 -20 2 -45z m1738 15 l28 -30 -32 -62 c-35 -68 -77 -118 -98 -118 -25
0 -45 70 -38 135 7 73 13 83 51 95 48 14 59 11 89 -20z m-1215 -20 c0 -5 -2
-10 -4 -10 -3 0 -8 5 -11 10 -3 6 -1 10 4 10 6 0 11 -4 11 -10z m147 -22 c-3
-8 -6 -5 -6 6 -1 11 2 17 5 13 3 -3 4 -12 1 -19z m1355 -94 c35 -20 70 -42 79
-50 8 -8 21 -14 27 -14 6 0 21 -19 33 -41 15 -31 24 -38 32 -30 6 6 15 11 19
11 12 0 10 -48 -2 -55 -5 -3 -10 -17 -10 -30 0 -35 -15 -38 -31 -7 -29 57 -64
94 -121 127 -32 19 -63 35 -69 35 -5 0 -28 9 -52 19 -23 11 -59 22 -79 25 -45
8 -57 24 -32 43 33 25 132 9 206 -33z m-2282 -144 c0 -5 -7 -7 -15 -4 -8 4
-15 8 -15 10 0 2 7 4 15 4 8 0 15 -4 15 -10z m410 6 c0 -2 -7 -9 -15 -16 -13
-11 -14 -10 -9 4 5 14 24 23 24 12z m59 -32 c-14 -18 -24 -11 -15 11 3 9 11
13 16 10 8 -5 7 -11 -1 -21z m74 6 c-8 -29 -23 -35 -23 -9 0 18 -2 19 -15 9
-12 -10 -15 -10 -15 2 0 8 12 15 29 16 25 2 28 -1 24 -18z m110 -10 c3 -11 1
-20 -4 -20 -5 0 -9 9 -9 20 0 11 2 20 4 20 2 0 6 -9 9 -20z m-290 -34 c6 -14
0 -26 -13 -26 -3 0 -6 9 -7 20 -2 23 12 27 20 6z m37 -26 c0 -5 -7 -10 -16
-10 -8 0 -12 5 -9 10 3 6 10 10 16 10 5 0 9 -4 9 -10z m1660 -13 c0 -8 -9 -22
-20 -32 -19 -18 -20 -17 -20 1 0 20 17 44 32 44 4 0 8 -6 8 -13z m145 1 c14
-6 25 -14 25 -18 0 -13 -63 -21 -71 -9 -4 6 -25 12 -48 13 -40 1 -48 5 -34 19
11 11 100 8 128 -5z m-3271 -317 c-27 -33 -50 -58 -52 -56 -6 5 51 88 73 107
36 29 28 11 -21 -51z m499 19 c15 0 27 -5 27 -11 0 -5 -3 -8 -8 -5 -16 10
-205 -50 -272 -86 -100 -53 -200 -127 -200 -147 0 -7 -16 -21 -35 -32 -19 -12
-35 -26 -35 -33 0 -7 -7 -21 -16 -32 -15 -18 -15 -18 -10 6 14 77 80 190 110
190 7 0 23 11 36 25 24 25 74 55 93 55 5 0 37 13 71 30 34 16 84 31 110 34 26
2 50 7 54 11 4 3 16 4 27 1 11 -3 32 -6 48 -6z m-563 -130 c-6 -12 -14 -20
-17 -17 -2 3 1 14 8 26 7 11 15 18 17 16 2 -2 -2 -13 -8 -25z m-1343 -60 c46
-29 61 -44 56 -56 -8 -22 -74 -11 -114 18 -34 26 -49 20 -127 -48 -28 -24 -60
-44 -72 -44 -21 0 -20 1 7 35 37 44 153 135 173 135 8 0 43 -18 77 -40z m1823
-115 c0 -8 6 -15 14 -15 23 0 27 -28 5 -35 -10 -4 -19 -13 -19 -21 0 -14 7
-24 38 -59 24 -27 5 -73 -50 -115 -27 -22 -58 -40 -68 -40 -34 0 -70 -47 -70
-91 0 -33 -5 -42 -32 -59 -17 -10 -35 -17 -40 -14 -12 8 -10 79 4 109 10 22 9
32 -6 60 -10 18 -19 47 -21 64 -1 17 -8 37 -15 46 -10 13 -9 15 7 15 11 0 29
13 41 30 13 17 28 27 36 24 8 -3 17 -1 21 5 3 6 13 11 21 11 8 0 31 7 51 15
30 13 34 17 23 30 -10 13 -10 19 5 35 21 24 55 26 55 5z m-649 -70 c19 -8 41
-19 49 -24 8 -5 27 -14 42 -21 27 -13 46 -59 33 -80 -3 -6 -22 -17 -42 -25
-30 -13 -34 -19 -29 -39 3 -14 0 -28 -8 -35 -25 -21 -7 -57 40 -81 35 -17 43
-25 34 -35 -7 -9 -8 -20 -2 -32 5 -10 16 -31 23 -48 7 -16 15 -34 17 -38 4 -7
-47 -2 -88 9 -25 7 -50 59 -50 106 0 38 -3 45 -30 56 -34 16 -41 55 -12 71 9
5 25 23 35 40 l18 30 -38 7 c-76 14 -101 31 -115 75 -11 39 -10 43 11 60 28
23 67 24 112 4z m4667 -259 c3 -12 -1 -17 -10 -14 -7 3 -15 13 -16 22 -3 12 1
17 10 14 7 -3 15 -13 16 -22z m-4809 -138 c5 -15 22 -25 52 -33 24 -6 43 -15
42 -21 -1 -5 13 -11 32 -11 40 -1 55 -9 55 -28 0 -14 -29 -14 -64 0 -10 5 -33
3 -53 -4 -33 -12 -36 -11 -63 16 -16 16 -48 36 -72 43 -54 17 -70 30 -36 30
14 0 31 7 38 15 19 23 59 19 69 -7z m891 -3 c0 -7 -6 -18 -14 -22 -7 -4 -25
-29 -38 -56 -32 -59 -70 -91 -103 -84 -17 3 -25 0 -25 -9 0 -8 -7 -14 -15 -14
-8 0 -15 5 -15 10 0 6 5 10 10 10 6 0 10 6 10 13 0 6 21 34 45 60 25 26 45 52
45 57 0 13 42 40 52 34 4 -3 8 0 8 5 0 6 9 11 20 11 11 0 20 -7 20 -15z m-607
-101 c3 -3 1 -16 -5 -29 -8 -19 -13 -21 -33 -11 -18 8 -21 13 -11 28 11 18 37
24 49 12z m183 -13 c89 -27 125 -50 118 -76 -9 -30 -36 -47 -64 -40 -14 4 -43
9 -65 11 -22 3 -49 9 -60 14 -11 5 -37 16 -57 24 -69 27 -36 76 57 85 6 0 38
-8 71 -18z m-414 -52 c17 11 22 11 29 -1 18 -28 4 -68 -39 -105 -26 -24 -42
-22 -42 4 0 9 -10 27 -21 39 -15 16 -20 30 -15 48 7 29 36 39 54 17 11 -13 16
-13 34 -2z m898 -13 c0 -2 -9 -6 -20 -9 -11 -3 -18 -1 -14 4 5 9 34 13 34 5z
m106 -8 c12 -19 -12 -29 -42 -18 -18 7 -24 14 -17 18 19 12 52 12 59 0z m-117
-382 c-9 -8 -10 -7 -5 7 3 10 7 24 7 30 1 7 3 4 6 -7 3 -10 -1 -23 -8 -30z
m-24 15 c3 -5 1 -12 -5 -16 -5 -3 -10 1 -10 9 0 18 6 21 15 7z m2865 -331 c0
-5 -4 -10 -10 -10 -5 0 -10 5 -10 10 0 6 5 10 10 10 6 0 10 -4 10 -10z m560
-90 c0 -5 -4 -10 -10 -10 -5 0 -10 5 -10 10 0 6 5 10 10 10 6 0 10 -4 10 -10z
m182 -182 c21 -23 38 -45 38 -49 0 -3 12 -15 27 -24 l27 -18 41 45 c52 58 79
73 95 53 15 -18 6 -45 -15 -45 -9 0 -15 -9 -15 -23 0 -12 -10 -29 -22 -37 -12
-8 -35 -29 -51 -47 -19 -20 -35 -29 -46 -26 -24 9 -61 45 -61 59 0 7 -11 21
-25 32 -14 11 -25 27 -25 35 0 8 -7 20 -15 27 -18 15 -20 60 -3 60 6 0 28 -19
50 -42z m-2638 -78 c19 -38 36 -85 38 -105 3 -37 2 -38 -32 -40 -55 -3 -115
27 -128 64 -9 26 -8 31 5 31 11 0 14 7 10 26 -3 16 0 28 9 31 9 3 14 20 14 42
0 21 3 41 7 44 12 12 42 -24 77 -93z m1515 -14 c-7 -20 -24 -43 -36 -52 -21
-13 -25 -13 -38 0 -8 8 -15 21 -15 29 0 9 -6 18 -12 21 -7 4 -4 5 8 2 12 -2
25 4 32 15 9 14 57 30 70 22 2 -1 -2 -18 -9 -37z m156 7 c3 -10 1 -19 -4 -21
-6 -2 -11 -10 -11 -18 0 -8 -8 -18 -17 -21 -20 -8 -56 -46 -80 -86 -10 -15
-25 -30 -35 -33 -10 -3 -27 -22 -37 -41 -10 -20 -21 -31 -24 -25 -4 5 -16 8
-26 5 -15 -4 -21 2 -26 26 -6 30 -26 46 -87 71 -32 14 -42 34 -23 50 21 18 74
-3 118 -47 l38 -36 35 34 c20 19 42 46 50 61 21 41 82 98 103 98 10 0 22 -8
26 -17z m-2391 -68 c10 -38 6 -114 -6 -122 -36 -22 -118 31 -118 77 0 23 5 31
25 36 14 3 25 12 25 20 0 40 63 31 74 -11z m-675 -13 c18 11 23 11 30 -1 5 -7
14 -10 20 -7 6 4 15 -3 21 -18 5 -14 16 -26 24 -26 10 0 13 -8 10 -27 -3 -15
-7 -30 -9 -34 -11 -17 -83 -42 -144 -50 -81 -10 -91 -1 -91 82 0 60 18 93 45
83 7 -3 22 -1 32 5 14 8 21 6 30 -5 9 -13 14 -13 32 -2z m462 -13 c16 -17 29
-36 29 -43 0 -6 -16 -29 -34 -51 -32 -37 -36 -39 -52 -23 -16 15 -29 120 -17
141 10 17 47 5 74 -24z m376 4 c4 -10 14 -23 22 -29 9 -7 15 -30 16 -58 2 -36
-2 -47 -16 -51 -22 -7 -53 8 -93 46 -29 26 -29 29 -17 68 11 38 15 41 47 41
24 0 37 -5 41 -17z m-546 -12 c11 -2 29 -52 29 -79 -1 -44 -78 -84 -120 -62
-17 9 -20 21 -20 70 0 59 0 60 33 68 27 7 54 9 78 3z m829 -85 c0 -18 -5 -37
-12 -44 -15 -15 -87 -16 -124 -2 -23 9 -26 14 -20 42 6 32 46 76 63 71 5 -2
15 3 22 11 18 22 71 -36 71 -78z"/>
<path d="M4133 3921 c-64 -8 -85 -24 -53 -41 17 -9 25 -9 38 3 31 27 68 25 77
-4 6 -19 8 -19 32 7 19 21 22 29 11 35 -14 9 -27 9 -105 0z"/>
<path d="M3570 3903 c0 -5 7 -16 14 -25 12 -17 14 -17 30 0 23 26 20 32 -14
32 -16 0 -30 -3 -30 -7z"/>
<path d="M3698 3884 c13 -9 30 -13 40 -9 14 5 14 7 2 15 -8 6 -26 10 -40 10
l-24 0 22 -16z"/>
<path d="M4218 3774 c-5 -4 19 -64 26 -64 1 0 3 11 4 24 2 23 -19 51 -30 40z"/>
<path d="M3697 3732 c-10 -2 -16 -9 -14 -15 4 -14 47 -23 47 -10 0 17 -16 29
-33 25z"/>
<path d="M3819 3689 c-10 -6 -7 -9 14 -9 29 0 35 5 14 13 -8 3 -20 1 -28 -4z"/>
<path d="M4340 3689 c0 -5 5 -7 10 -4 6 3 10 8 10 11 0 2 -4 4 -10 4 -5 0 -10
-5 -10 -11z"/>
<path d="M3910 3680 c0 -13 20 -13 40 0 12 8 9 10 -12 10 -16 0 -28 -4 -28
-10z"/>
<path d="M3733 3440 c-13 -10 -23 -22 -23 -26 0 -4 -7 -16 -17 -26 -15 -17
-14 -18 16 -24 17 -4 34 -11 37 -15 3 -5 10 -7 15 -4 5 4 9 2 9 -3 0 -6 10 -8
22 -4 17 4 20 2 15 -12 -6 -15 -4 -15 23 -1 18 9 37 13 48 8 9 -4 42 -8 74 -8
31 0 54 -3 53 -6 -2 -3 11 -12 30 -21 32 -14 34 -14 25 3 -6 10 -10 30 -10 46
1 28 1 28 18 7 31 -36 44 -16 15 23 -20 26 -24 36 -14 43 7 4 9 10 5 13 -20
12 -124 17 -181 9 -34 -5 -66 -5 -70 -2 -20 18 -69 18 -90 0z"/>
<path d="M4350 3300 c0 -5 5 -10 10 -10 6 0 10 5 10 10 0 6 -4 10 -10 10 -5 0
-10 -4 -10 -10z"/>
<path d="M3841 3254 c0 -11 3 -14 6 -6 3 7 2 16 -1 19 -3 4 -6 -2 -5 -13z"/>
<path d="M3960 3261 c0 -5 5 -11 11 -13 9 -3 9 -9 0 -25 -19 -36 -13 -49 11
-26 19 19 20 26 10 48 -11 24 -32 35 -32 16z"/>
<path d="M3880 3211 c0 -6 5 -13 10 -16 6 -3 10 1 10 9 0 9 -4 16 -10 16 -5 0
-10 -4 -10 -9z"/>
<path d="M4041 3184 c0 -11 3 -14 6 -6 3 7 2 16 -1 19 -3 4 -6 -2 -5 -13z"/>
<path d="M4420 2649 c0 -5 5 -7 10 -4 6 3 10 8 10 11 0 2 -4 4 -10 4 -5 0 -10
-5 -10 -11z"/>
<path d="M5021 2304 c0 -11 3 -14 6 -6 3 7 2 16 -1 19 -3 4 -6 -2 -5 -13z"/>
<path d="M2516 4595 c-3 -8 -13 -13 -23 -10 -10 3 -7 0 6 -7 20 -10 22 -18 18
-50 -3 -21 -1 -41 4 -44 5 -3 9 -14 9 -25 0 -10 5 -19 11 -19 8 0 9 11 5 31
-3 17 -6 56 -6 85 0 52 -11 71 -24 39z"/>
<path d="M2740 3933 c0 -22 2 -25 10 -13 13 20 13 40 0 40 -5 0 -10 -12 -10
-27z"/>
<path d="M2783 3806 c-1 -30 -19 -49 -40 -41 -7 2 -13 -2 -13 -10 0 -18 1 -18
33 -6 25 10 25 10 10 -20 -8 -17 -12 -33 -9 -36 3 -4 6 -1 6 5 0 18 72 88 77
74 3 -6 9 -9 15 -6 5 3 2 14 -8 25 -17 19 -18 19 -41 -3 -27 -26 -30 -18 -6
20 15 24 16 25 1 14 -13 -10 -17 -10 -21 0 -2 7 -4 0 -4 -16z"/>
<path d="M2826 3735 c-9 -26 -7 -32 5 -12 6 10 9 21 6 23 -2 3 -7 -2 -11 -11z"/>
<path d="M4961 3741 c-8 -5 -11 -16 -8 -25 10 -25 27 -19 27 9 0 28 0 28 -19
16z"/>
<path d="M2570 3123 c-18 -6 -108 -91 -120 -114 -8 -14 1 -16 68 -17 42 -1 89
-4 104 -7 37 -8 42 8 19 57 -26 57 -53 87 -71 81z"/>
<path d="M2293 2893 c-14 -15 -35 -23 -55 -23 -18 0 -64 -12 -103 -25 -38 -14
-71 -25 -72 -25 -1 0 -3 -12 -5 -27 -4 -36 -45 -59 -68 -38 -29 26 -74 29
-118 6 -23 -12 -49 -21 -59 -21 -25 0 -121 -37 -148 -58 -18 -13 -23 -26 -22
-59 2 -34 -4 -48 -27 -72 -16 -17 -38 -33 -48 -37 -14 -4 -18 -13 -16 -32 3
-23 -2 -29 -37 -40 -22 -7 -53 -12 -70 -10 -30 3 -31 4 -18 51 3 9 0 17 -6 17
-14 0 -51 37 -51 50 0 6 -21 -4 -47 -22 -27 -18 -52 -33 -58 -34 -28 -1 -114
-37 -119 -49 -3 -8 -24 -24 -47 -36 l-43 -21 28 -15 c15 -8 40 -17 55 -19 14
-3 38 -13 52 -24 15 -10 39 -22 53 -26 14 -3 30 -12 37 -20 6 -8 17 -14 23
-14 6 -1 35 -23 65 -50 l55 -48 30 22 c17 12 43 28 58 35 15 8 45 30 67 50 61
54 99 84 129 101 15 8 31 20 37 26 21 23 93 74 104 74 6 0 11 4 11 10 0 17 43
38 90 45 25 4 47 9 49 11 3 2 -6 15 -18 28 -23 24 -23 25 -6 75 20 60 37 80
76 88 16 3 32 10 35 14 3 5 27 9 55 9 27 0 49 5 49 10 0 6 5 10 11 10 8 0 8
-5 -1 -15 -15 -18 -6 -45 14 -45 9 0 20 9 26 20 6 12 22 25 36 30 15 6 24 17
24 30 0 12 5 30 11 41 5 11 9 32 7 47 l-3 27 -22 -22z"/>
<path d="M2400 2762 c-19 -9 -43 -26 -52 -37 -17 -19 -25 -75 -11 -75 4 0 27
22 52 48 25 27 54 52 64 55 9 4 17 11 17 17 0 15 -30 12 -70 -8z"/>
<path d="M6120 2613 c-26 -10 -49 -34 -44 -48 3 -7 -14 -24 -42 -40 -76 -45
-163 -163 -170 -230 -2 -22 -6 -49 -9 -61 -4 -12 0 -25 8 -33 12 -9 21 -6 48
21 41 40 99 119 99 134 0 13 134 117 163 128 10 3 16 10 12 16 -3 5 1 23 10
39 21 42 19 56 -10 69 -28 13 -41 14 -65 5z"/>
<path d="M2215 2579 c-27 -4 -73 -8 -100 -8 -28 -1 -56 -6 -62 -12 -14 -14 -4
-59 13 -59 8 0 14 -7 14 -15 0 -11 7 -10 35 6 31 19 36 19 41 5 3 -9 18 -16
32 -16 14 0 34 -7 44 -16 20 -19 21 -18 37 61 5 28 7 52 3 56 -4 3 -29 2 -57
-2z"/>
<path d="M6328 2423 c-16 -8 -28 -22 -28 -32 0 -17 -77 -74 -160 -118 -33 -18
-148 -142 -156 -168 -4 -11 -20 -39 -36 -63 -17 -24 -28 -45 -26 -46 1 -1 19
-7 38 -12 49 -13 49 -36 1 -70 -52 -37 -58 -52 -23 -60 109 -25 109 -66 -3
-126 l-40 -22 31 -6 c18 -4 44 -19 60 -33 30 -28 44 -34 44 -18 0 6 19 11 42
13 35 3 42 7 45 27 2 14 8 30 14 38 15 18 59 17 59 -1 0 -17 32 -15 38 2 2 7
0 12 -6 12 -7 0 -32 42 -32 55 0 2 9 9 20 15 16 9 26 7 49 -9 15 -11 31 -18
34 -15 3 4 20 1 37 -4 25 -9 32 -8 37 3 3 8 14 15 25 15 14 0 18 5 14 18 -4
12 7 25 39 47 24 17 45 37 45 46 0 17 32 33 86 44 29 6 94 58 94 75 0 4 9 10
20 13 11 3 25 18 31 34 6 15 15 36 20 45 13 25 12 28 -13 28 -52 0 -70 11 -65
38 8 41 -8 68 -42 75 -37 8 -48 16 -110 79 -57 57 -116 98 -139 97 -9 -1 -29
-8 -44 -16z m342 -338 c16 -19 3 -19 -30 0 -24 13 -24 14 -4 15 12 0 27 -7 34
-15z m-71 -47 c10 -17 10 -22 -6 -34 -27 -20 -42 -17 -55 11 -22 48 32 69 61
23z m-109 -94 c0 -16 -35 -19 -45 -5 -6 11 26 32 37 25 5 -3 8 -12 8 -20z
m-145 -94 c3 -5 2 -10 -4 -10 -6 0 -8 -7 -5 -15 5 -11 0 -14 -16 -12 -23 4
-42 26 -34 39 7 11 52 10 59 -2z m-240 -161 c-7 -11 -35 -12 -35 -1 0 4 9 8
20 9 11 1 18 -2 15 -8z"/>
<path d="M6540 2346 c0 -8 123 -66 141 -66 8 0 36 -23 64 -51 27 -28 72 -62
99 -76 28 -14 66 -38 86 -53 32 -26 146 -61 195 -61 10 0 25 -5 31 -10 7 -6
25 -9 41 -7 25 4 26 5 8 13 -44 20 -105 67 -105 82 0 17 -38 52 -57 53 -9 0
-11 -10 -6 -30 5 -25 2 -30 -14 -30 -37 0 -165 51 -207 83 -19 14 -19 15 3 27
13 6 34 10 48 7 34 -6 24 16 -13 27 -16 5 -48 17 -71 27 -24 11 -48 19 -55 19
-15 0 -78 22 -94 32 -15 10 -94 22 -94 14z"/>
<path d="M5596 2281 c-4 -5 0 -11 6 -14 8 -3 3 -9 -13 -16 -25 -13 -55 -86
-39 -96 9 -6 120 10 164 22 l28 9 -51 52 c-48 49 -82 64 -95 43z"/>
<path d="M675 2250 c-3 -5 -2 -10 4 -10 5 0 13 5 16 10 3 6 2 10 -4 10 -5 0
-13 -4 -16 -10z"/>
<path d="M578 2201 c-37 -20 -78 -46 -92 -58 -13 -12 -43 -32 -65 -45 -23 -13
-44 -31 -47 -40 -3 -10 -9 -18 -14 -18 -19 0 -139 -87 -194 -142 l-59 -58 74
6 74 6 125 127 c69 69 160 152 203 185 68 52 92 78 70 75 -5 0 -38 -17 -75
-38z"/>
<path d="M6950 2200 c20 -13 33 -13 25 0 -3 6 -14 10 -23 10 -15 0 -15 -2 -2
-10z"/>
<path d="M5565 2131 c-3 -5 -1 -12 5 -16 12 -7 30 2 30 16 0 12 -27 12 -35 0z"/>
<path d="M5515 2120 c-3 -5 1 -10 9 -10 8 0 18 5 21 10 3 6 -1 10 -9 10 -8 0
-18 -4 -21 -10z"/>
<path d="M7619 1940 c-2 -52 -2 -140 0 -196 l3 -100 31 30 c80 81 111 158 87
221 -11 30 -77 101 -95 103 -5 0 -12 9 -16 19 -3 10 -8 -25 -10 -77z"/>
<path d="M7362 1980 c20 -28 62 -49 73 -38 5 5 -75 68 -87 68 -5 0 1 -14 14
-30z"/>
<path d="M5769 1944 c-7 -8 -19 -12 -26 -9 -8 3 -21 -2 -29 -10 -10 -9 -24
-13 -40 -9 -14 4 -24 2 -24 -4 0 -6 -18 -13 -40 -17 -22 -4 -40 -11 -40 -16 0
-6 19 -19 43 -30 23 -11 56 -28 72 -39 17 -10 37 -19 45 -19 16 0 70 80 70
104 0 8 5 17 11 20 15 10 7 38 -13 41 -9 1 -23 -4 -29 -12z"/>
<path d="M7480 1910 c0 -5 5 -10 11 -10 5 0 7 5 4 10 -3 6 -8 10 -11 10 -2 0
-4 -4 -4 -10z"/>
<path d="M7529 1886 c12 -14 51 -29 51 -19 0 10 -34 32 -49 33 -10 0 -11 -3
-2 -14z"/>
<path d="M783 1791 c-31 -39 -32 -62 -5 -72 17 -6 24 -5 28 6 4 8 14 15 23 15
9 0 25 8 36 16 20 15 20 16 -8 40 -35 30 -47 30 -74 -5z"/>
<path d="M6281 1766 c-9 -11 -7 -15 8 -19 24 -6 46 7 37 22 -10 15 -31 14 -45
-3z"/>
<path d="M445 1690 c-3 -5 -14 -10 -24 -10 -20 0 -66 -31 -184 -122 -41 -32
-78 -58 -83 -58 -5 0 -32 -16 -59 -36 -28 -20 -60 -40 -72 -45 -19 -7 -23 -16
-23 -54 0 -45 15 -60 27 -27 10 25 36 41 52 33 14 -8 71 14 71 28 0 3 14 12
30 18 23 9 30 17 30 38 0 18 6 29 20 32 11 3 20 13 20 23 0 12 10 21 28 25 15
3 32 16 37 28 6 12 17 21 27 19 9 -1 19 2 23 7 3 6 12 8 20 4 8 -3 15 0 15 6
0 6 9 11 19 11 11 0 26 7 35 15 8 8 24 15 35 15 24 0 25 1 9 35 -11 25 -41 34
-53 15z"/>
<path d="M5743 1595 c0 -8 4 -15 9 -15 4 0 8 4 8 9 0 6 -4 12 -8 15 -5 3 -9
-1 -9 -9z"/>
<path d="M5713 1555 c11 -23 27 -34 27 -17 -1 9 -26 42 -33 42 -3 0 0 -11 6
-25z"/>
<path d="M5663 1549 c-23 -8 -29 -20 -17 -32 3 -3 15 3 27 13 25 23 20 31 -10
19z"/>
<path d="M895 1508 c-16 -5 -59 -23 -94 -40 -35 -17 -75 -34 -90 -38 l-26 -7
45 -42 c42 -39 113 -91 125 -91 3 0 5 18 5 39 0 25 5 41 15 45 9 3 15 18 15
35 0 20 6 30 20 34 23 6 27 27 5 27 -8 0 -15 5 -15 10 0 6 6 10 13 10 7 0 22
7 33 15 19 14 19 14 -1 14 -11 0 -33 -5 -50 -11z"/>
<path d="M425 1335 c-21 -8 -46 -23 -55 -34 -8 -11 -27 -25 -42 -30 -19 -7
-26 -15 -22 -26 5 -11 2 -14 -10 -9 -12 5 -16 0 -16 -16 0 -19 2 -21 16 -9 14
12 16 10 13 -16 -3 -27 -43 -75 -61 -75 -4 0 -5 -8 -1 -17 6 -16 4 -16 -15 1
-12 11 -22 28 -22 38 0 18 -1 18 -27 0 -42 -29 -73 -49 -125 -83 -26 -16 -49
-38 -51 -47 -9 -35 -7 -82 4 -82 6 0 8 9 4 23 -7 21 -6 21 11 4 20 -19 25 -89
10 -139 -7 -24 -5 -29 18 -37 14 -6 27 -20 30 -33 3 -13 8 -36 12 -53 4 -16 6
-36 5 -42 -1 -7 3 -13 9 -13 5 0 10 -6 10 -14 0 -25 44 -93 48 -74 6 34 52 33
52 -1 0 -10 11 -28 25 -41 l24 -23 -5 35 c-6 32 -4 36 21 42 20 5 31 2 40 -10
16 -23 40 -13 56 25 8 18 21 31 31 31 10 0 18 5 18 11 0 5 5 7 10 4 6 -3 10
-11 10 -16 0 -6 -4 -7 -10 -4 -16 10 -12 -11 5 -25 12 -10 15 -10 15 0 0 7 7
10 16 6 13 -5 15 -1 10 19 -5 20 -2 26 19 31 18 4 33 -1 56 -20 33 -28 44 -31
54 -16 3 6 2 10 -4 10 -6 0 -15 9 -21 20 -8 16 -6 24 11 41 l21 21 27 -26 c31
-29 43 -33 35 -11 -8 21 4 65 18 65 6 0 22 -10 35 -22 l23 -21 0 35 c0 20 7
41 15 48 8 7 15 22 15 34 0 11 8 48 18 81 10 34 15 75 12 95 -4 31 -8 35 -35
35 l-30 0 0 75 c0 83 5 79 -79 59 -66 -15 -79 0 -74 91 l3 65 -50 0 c-58 0
-75 8 -75 36 0 22 -3 23 -55 4z m-265 -591 c0 -8 6 -14 14 -14 20 0 26 -25 13
-54 -15 -32 -32 -40 -34 -15 -1 11 5 19 13 19 10 0 14 7 12 18 -2 9 -10 16
-17 14 -7 -1 -10 2 -7 7 4 5 2 12 -4 16 -5 3 -10 13 -10 21 0 8 5 12 10 9 6
-3 10 -13 10 -21z"/>
<path d="M6520 1267 c0 -16 -75 -97 -90 -97 -5 0 -10 -7 -10 -16 0 -8 -5 -24
-11 -35 -8 -16 -13 -18 -25 -8 -9 7 -14 8 -14 1 0 -6 -2 -17 -5 -24 -4 -11 6
-15 42 -16 68 -2 104 -7 134 -20 15 -6 36 -8 48 -5 12 3 28 0 36 -7 9 -7 22
-9 32 -4 10 4 29 8 42 8 26 1 43 26 17 26 -9 0 -16 4 -16 9 0 6 -22 33 -49 61
-27 28 -60 66 -72 84 -27 40 -59 63 -59 43z"/>
<path d="M242 1198 c-14 -14 -16 -28 -3 -28 5 0 11 9 14 20 6 23 5 24 -11 8z"/>
<path d="M7935 1130 c-3 -5 -11 -7 -19 -4 -7 3 -26 -1 -42 -7 -16 -7 -35 -11
-41 -10 -7 1 -13 -5 -13 -13 0 -8 -8 -17 -17 -21 -10 -3 -26 -17 -36 -31 -31
-42 -9 -82 115 -205 61 -60 112 -109 114 -109 2 0 4 92 4 205 l0 205 -29 0
c-17 0 -32 -4 -36 -10z"/>
<path d="M5075 1120 c-3 -6 5 -10 19 -10 14 0 28 5 31 10 3 6 -5 10 -19 10
-14 0 -28 -4 -31 -10z"/>
<path d="M7555 1110 c-3 -5 -1 -10 4 -10 6 0 11 5 11 10 0 6 -2 10 -4 10 -3 0
-8 -4 -11 -10z"/>
<path d="M3226 1001 c-4 -7 -5 -15 -2 -18 9 -9 19 4 14 18 -4 11 -6 11 -12 0z"/>
<path d="M855 960 c-3 -5 1 -10 10 -10 9 0 13 5 10 10 -3 6 -8 10 -10 10 -2 0
-7 -4 -10 -10z"/>
<path d="M7202 915 c-10 -11 -17 -12 -37 -3 -18 8 -28 8 -38 0 -10 -9 -17 -8
-26 1 -10 9 -15 8 -26 -7 -12 -16 -17 -17 -30 -6 -12 10 -16 9 -21 -4 -7 -19
-30 -21 -38 -3 -3 9 -8 7 -15 -5 -7 -10 -19 -14 -31 -11 -14 4 -20 0 -20 -12
0 -11 -5 -15 -15 -11 -8 3 -15 1 -15 -4 0 -6 -9 -10 -20 -10 -11 0 -23 -7 -26
-15 -9 -21 46 -115 67 -115 9 0 59 14 111 31 70 24 119 33 198 38 98 6 105 7
102 26 -2 11 -4 34 -5 50 -2 23 -6 29 -19 27 -10 -2 -18 2 -18 9 0 6 -8 9 -20
6 -13 -3 -21 1 -25 14 -7 22 -15 23 -33 4z"/>
<path d="M3100 890 c0 -5 5 -10 10 -10 6 0 10 5 10 10 0 6 -4 10 -10 10 -5 0
-10 -4 -10 -10z"/>
<path d="M6506 823 c4 -21 11 -39 15 -41 5 -2 9 -9 9 -16 0 -7 12 -23 26 -37
l26 -24 34 38 c23 24 34 46 32 60 -3 19 -9 22 -51 22 -34 0 -52 5 -61 18 -23
30 -38 21 -30 -20z"/>
<path d="M7345 790 c-4 -7 -4 -15 1 -19 5 -3 10 -19 11 -35 4 -47 19 -54 53
-21 28 27 29 30 13 47 -9 10 -21 17 -27 15 -6 -3 -18 2 -28 10 -12 11 -18 11
-23 3z"/>
<path d="M4759 764 c-6 -8 -23 -13 -38 -12 -14 1 -42 -6 -61 -16 -19 -10 -56
-29 -82 -42 -46 -23 -82 -56 -42 -39 24 10 65 10 73 -2 11 -15 73 -43 83 -37
5 3 20 -4 33 -16 25 -23 48 -20 38 6 -4 12 0 14 21 8 22 -5 28 -3 33 14 3 12
11 18 19 15 21 -8 28 24 10 42 -21 21 -20 32 2 44 16 9 16 11 -1 28 -21 22
-72 26 -88 7z"/>
<path d="M0 743 c0 -17 4 -34 9 -38 16 -10 19 9 5 40 l-13 30 -1 -32z"/>
<path d="M6340 610 c0 -5 7 -10 15 -10 8 0 15 5 15 10 0 6 -7 10 -15 10 -8 0
-15 -4 -15 -10z"/>
<path d="M470 560 c0 -5 5 -10 10 -10 6 0 10 5 10 10 0 6 -4 10 -10 10 -5 0
-10 -4 -10 -10z"/>
<path d="M6563 532 c-9 -38 12 -50 42 -22 31 29 28 43 -8 44 -21 1 -29 -4 -34
-22z"/>
<path d="M172 505 c0 -16 2 -22 5 -12 2 9 2 23 0 30 -3 6 -5 -1 -5 -18z"/>
<path d="M290 470 c0 -5 5 -10 11 -10 5 0 7 5 4 10 -3 6 -8 10 -11 10 -2 0 -4
-4 -4 -10z"/>
<path d="M3466 444 c-8 -21 -4 -25 14 -14 11 7 12 12 4 20 -8 8 -13 7 -18 -6z"/>
<path d="M4382 438 c-22 -22 -8 -100 20 -110 9 -4 14 2 13 21 0 14 5 26 10 27
58 9 73 41 28 62 -34 15 -56 15 -71 0z"/>
<path d="M32 353 l-32 -4 0 -64 c0 -83 10 -105 58 -138 22 -14 53 -39 68 -54
24 -23 29 -25 32 -11 2 9 -2 26 -7 37 -6 11 -11 35 -11 55 0 19 -4 38 -10 41
-5 3 -10 17 -10 30 0 13 -4 27 -10 30 -5 3 -10 16 -10 28 -1 20 -22 59 -31 55
-2 0 -19 -3 -37 -5z"/>
<path d="M1255 339 c-126 -23 -218 -44 -234 -53 -6 -4 -34 -10 -61 -12 -27 -3
-68 -11 -91 -19 -23 -8 -54 -15 -70 -15 -39 0 -55 -21 -63 -81 -10 -74 -17
-83 -91 -114 -36 -16 -65 -32 -65 -37 0 -4 34 -8 76 -8 69 0 75 2 69 19 -3 10
1 23 9 30 12 10 23 7 60 -18 29 -20 57 -31 79 -31 30 0 37 5 48 33 18 43 49
77 70 77 17 0 29 -36 29 -86 0 -22 4 -24 55 -24 55 0 55 0 35 20 -26 26 -26
74 1 116 14 23 28 34 44 34 31 0 45 -27 45 -85 0 -25 -5 -55 -10 -66 -10 -19
-5 -19 235 -19 135 0 245 4 245 8 0 4 -4 12 -9 18 -5 5 -19 27 -31 48 -27 49
-20 79 28 126 21 19 50 52 66 73 44 57 29 67 -104 67 -58 0 -109 3 -113 6 -13
14 -158 10 -252 -7z m228 -123 c9 3 17 -2 21 -13 9 -28 -12 -137 -29 -149 -24
-18 -140 -17 -175 1 -38 20 -57 53 -35 61 8 3 15 17 15 30 0 15 6 24 15 24 8
0 15 4 15 9 0 10 56 32 63 25 2 -2 17 2 32 10 19 10 34 12 46 5 10 -5 24 -6
32 -3z"/>
<path d="M1904 337 c-9 -5 -35 -11 -57 -13 -22 -1 -44 -7 -50 -13 -6 -6 -12
-75 -14 -161 l-4 -150 52 0 51 0 -28 37 c-34 45 -35 89 -3 158 29 59 62 72 80
31 7 -14 15 -23 20 -21 11 7 39 -53 39 -84 0 -16 -11 -37 -27 -53 -16 -15 -37
-36 -47 -47 l-19 -21 76 0 c44 0 79 5 83 11 3 6 5 45 3 88 -3 100 -2 140 6
176 10 46 -10 62 -82 67 -34 2 -70 0 -79 -5z"/>
<path d="M5933 316 c-13 -13 -23 -26 -23 -29 0 -4 -18 -25 -40 -49 -22 -24
-40 -47 -40 -52 0 -5 -11 -19 -25 -32 -14 -13 -25 -27 -25 -32 0 -5 -9 -17
-20 -27 -11 -10 -20 -23 -20 -30 0 -7 -9 -20 -20 -30 -11 -10 -20 -22 -20 -27
0 -4 138 -8 306 -8 l306 0 -6 25 c-3 13 -17 35 -31 49 -14 14 -25 30 -25 36 0
5 -7 10 -15 10 -8 0 -15 4 -15 9 0 13 -94 111 -107 111 -6 0 -13 7 -17 15 -3
8 -14 15 -23 15 -10 0 -25 9 -33 20 -8 11 -20 20 -26 20 -6 0 -17 7 -24 15
-17 21 -31 19 -57 -9z"/>
<path d="M4234 195 c-12 -31 4 -47 38 -40 18 4 35 9 37 11 8 7 -12 24 -30 24
-10 0 -19 5 -19 10 0 16 -20 12 -26 -5z"/>
<path d="M4700 154 c-30 -16 -140 -128 -140 -143 0 -7 56 -11 170 -11 146 0
169 2 164 15 -4 8 -12 15 -20 15 -8 0 -14 7 -14 15 0 9 -8 19 -17 22 -23 9
-43 29 -43 42 0 6 -7 11 -15 11 -8 0 -15 5 -15 11 0 5 -5 7 -11 4 -6 -4 -13 2
-16 14 -6 24 -8 24 -43 5z"/>
<path d="M304 45 c-4 -11 -15 -25 -23 -32 -13 -10 -9 -12 27 -13 47 0 50 4 22
40 -18 24 -19 24 -26 5z"/>
</g>
</svg>
