<?xml version="1.0" standalone="no"?>
<!DOCTYPE svg PUBLIC "-//W3C//DTD SVG 20010904//EN"
 "http://www.w3.org/TR/2001/REC-SVG-20010904/DTD/svg10.dtd">
<svg version="1.0" xmlns="http://www.w3.org/2000/svg"
 width="340.000000pt" height="89.000000pt" viewBox="0 0 340.000000 89.000000"
 preserveAspectRatio="xMidYMid meet">

<g transform="translate(0.000000,89.000000) scale(0.100000,-0.100000)"
fill="#000000" stroke="none">
<path d="M97 711 c-169 -229 -85 -553 173 -670 56 -26 85 -27 45 -3 -55 34
-129 132 -112 149 4 4 20 -5 35 -20 69 -66 197 -88 313 -54 139 41 197 135
142 230 -33 56 -58 62 -253 62 -189 0 -222 7 -267 56 -56 61 -76 198 -39 267
29 56 10 47 -37 -17z"/>
<path d="M246 719 c-34 -40 -41 -86 -21 -136 25 -63 41 -67 249 -68 l182 0 50
-30 c68 -42 106 -117 106 -208 0 -35 -5 -75 -11 -88 -12 -23 -12 -23 4 -4 47
58 85 174 85 261 0 52 0 52 -45 73 -25 12 -49 21 -54 21 -5 0 -32 16 -61 36
-66 45 -106 62 -178 75 -32 6 -94 26 -140 45 -133 57 -137 57 -166 23z"/>
<path d="M1129 722 c-26 -23 -31 -35 -31 -73 0 -63 16 -84 92 -122 48 -24 66
-38 68 -55 8 -55 -61 -74 -81 -22 -10 26 -16 30 -49 30 -31 0 -38 -4 -38 -20
0 -61 44 -94 125 -94 90 0 125 32 125 118 0 50 -19 72 -101 113 -38 20 -55 35
-57 51 -7 50 51 73 68 27 8 -21 16 -25 50 -25 46 0 45 -1 25 45 -17 41 -46 55
-115 55 -40 0 -56 -5 -81 -28z"/>
<path d="M1350 716 c0 -34 1 -35 43 -38 l42 -3 3 -152 3 -153 39 0 40 0 0 155
0 155 40 0 c39 0 40 1 40 35 l0 35 -125 0 -125 0 0 -34z"/>
<path d="M1630 560 l0 -190 45 0 45 0 0 80 c0 78 1 80 24 80 34 0 43 -16 51
-92 l7 -68 42 0 42 0 -7 77 c-4 57 -10 79 -24 90 -11 7 -23 13 -28 13 -5 0 5
13 22 29 23 21 31 38 31 63 -1 80 -43 106 -172 107 l-78 1 0 -190z m154 108
c9 -12 16 -28 16 -35 0 -20 -38 -53 -60 -53 -18 0 -20 7 -20 55 0 52 1 55 24
55 14 0 32 -10 40 -22z"/>
<path d="M1959 560 l-46 -190 44 0 c36 0 43 3 43 19 0 42 10 51 61 51 42 0 49
-3 49 -19 0 -41 11 -51 55 -51 l43 0 -47 188 -47 187 -55 3 -54 3 -46 -191z
m120 22 c7 -35 11 -65 9 -67 -2 -2 -16 -5 -33 -7 -27 -3 -30 0 -30 25 -1 16 2
30 6 33 4 2 10 27 14 56 9 60 17 50 34 -40z"/>
<path d="M2170 715 c0 -34 1 -35 40 -35 l40 0 0 -155 0 -155 45 0 45 0 0 155
0 155 40 0 c39 0 40 1 40 35 l0 35 -125 0 -125 0 0 -35z"/>
<path d="M2450 560 l0 -190 115 0 115 0 0 35 0 35 -70 0 -70 0 0 45 0 45 60 0
60 0 0 35 0 35 -60 0 -60 0 0 40 0 40 65 0 65 0 0 35 0 35 -110 0 -110 0 0
-190z"/>
<path d="M2763 738 c-37 -18 -53 -77 -53 -194 0 -147 22 -184 107 -184 21 0
49 7 61 16 12 8 22 10 22 5 0 -6 16 -11 35 -11 l35 0 0 69 c0 38 -3 83 -6 100
-6 30 -7 31 -65 31 -59 0 -59 0 -59 -30 0 -23 4 -30 20 -30 15 0 20 -7 20 -26
0 -61 -51 -89 -70 -38 -6 14 -10 70 -10 124 0 76 4 102 16 114 26 26 49 16 59
-27 6 -24 12 -27 47 -27 l41 0 -6 38 c-9 57 -45 82 -115 81 -31 0 -67 -5 -79
-11z"/>
<path d="M3010 560 l0 -190 45 0 45 0 0 190 0 190 -45 0 -45 0 0 -190z"/>
<path d="M3180 723 c-27 -24 -33 -39 -41 -103 -12 -84 -6 -168 16 -209 19 -38
64 -55 126 -49 66 7 99 38 109 103 8 53 2 58 -52 53 -30 -3 -33 -6 -38 -42 -6
-49 -34 -70 -56 -42 -21 30 -20 238 2 257 23 19 48 -1 54 -42 5 -32 8 -34 48
-37 39 -3 42 -2 42 23 0 37 -25 92 -48 104 -12 6 -46 11 -76 11 -47 0 -61 -4
-86 -27z"/>
<path d="M1107 263 c-14 -13 -6 -50 13 -68 27 -25 27 -65 -1 -65 -12 0 -19 -5
-16 -12 2 -7 17 -13 33 -13 26 0 29 4 32 34 2 23 -3 43 -17 62 -26 35 -27 49
-1 49 11 0 20 5 20 10 0 11 -53 14 -63 3z"/>
<path d="M1220 225 c0 -31 5 -47 15 -51 9 -4 15 -19 15 -40 0 -24 5 -34 15
-34 10 0 15 10 15 31 0 17 7 37 15 45 8 9 15 33 15 55 0 32 -3 39 -19 39 -16
0 -21 -8 -24 -42 l-4 -43 -1 43 c-2 35 -5 42 -22 42 -17 0 -20 -7 -20 -45z"/>
<path d="M1360 241 c0 -15 9 -40 20 -54 11 -14 20 -32 20 -41 0 -9 -8 -16 -20
-16 -11 0 -20 -7 -20 -15 0 -15 26 -20 54 -9 23 9 20 61 -4 91 -11 14 -20 32
-20 39 0 8 9 14 20 14 11 0 20 5 20 10 0 6 -16 10 -35 10 -32 0 -35 -3 -35
-29z"/>
<path d="M1480 260 c0 -5 5 -10 10 -10 6 0 10 -32 10 -75 0 -60 3 -75 15 -75
12 0 15 15 15 75 0 43 4 75 10 75 6 0 10 5 10 10 0 6 -16 10 -35 10 -19 0 -35
-4 -35 -10z"/>
<path d="M1602 188 l3 -83 29 0 c16 0 31 6 34 13 2 6 -3 12 -12 12 -10 0 -16
9 -16 25 0 16 6 25 15 25 8 0 15 5 15 10 0 6 -7 10 -15 10 -9 0 -15 9 -15 25
0 16 6 25 15 25 8 0 15 5 15 10 0 6 -16 10 -35 10 l-36 0 3 -82z"/>
<path d="M1722 189 c2 -55 7 -84 16 -87 9 -3 12 16 12 72 0 44 4 76 10 76 6 0
10 -32 10 -76 0 -56 3 -75 13 -72 7 3 14 33 18 79 l5 74 2 -77 c2 -63 5 -78
17 -78 13 0 15 14 13 83 l-3 82 -58 3 -58 3 3 -82z"/>
<path d="M1897 263 c-13 -13 -7 -37 19 -74 28 -40 25 -59 -7 -59 -28 0 -19
-24 10 -28 53 -8 67 47 25 97 -26 31 -25 51 2 51 8 0 14 5 14 10 0 11 -53 14
-63 3z"/>
<path d="M2097 263 c-10 -9 -8 -136 2 -151 10 -16 53 -12 59 6 2 6 -3 12 -12
12 -10 0 -16 9 -16 25 0 16 6 25 15 25 8 0 15 5 15 10 0 6 -7 10 -15 10 -9 0
-15 9 -15 25 0 16 6 25 15 25 8 0 15 5 15 10 0 11 -53 14 -63 3z"/>
<path d="M2212 188 c2 -54 7 -83 16 -86 8 -2 12 12 13 50 l1 53 11 -40 c27
-93 47 -82 47 26 0 64 -3 79 -15 79 -10 0 -15 -11 -16 -37 l-1 -38 -10 38 c-7
27 -15 37 -29 37 -18 0 -20 -6 -17 -82z"/>
<path d="M2357 263 c-4 -3 -7 -37 -7 -73 0 -74 12 -94 52 -88 19 2 23 10 26
46 2 33 0 42 -12 42 -11 0 -16 -10 -16 -30 0 -16 -4 -30 -10 -30 -6 0 -10 27
-10 60 0 53 2 60 20 60 11 0 20 5 20 10 0 11 -53 14 -63 3z"/>
<path d="M2488 189 c-3 -76 2 -96 20 -86 10 7 3 167 -8 167 -5 0 -10 -36 -12
-81z"/>
<path d="M2570 184 c0 -64 3 -85 13 -82 6 3 14 22 17 44 l6 39 7 -37 c4 -21
13 -40 19 -44 18 -12 28 19 28 94 0 56 -3 72 -14 72 -10 0 -16 -14 -18 -42
l-4 -43 -8 43 c-6 31 -13 42 -27 42 -17 0 -19 -9 -19 -86z"/>
<path d="M2712 188 c3 -82 3 -83 31 -86 19 -2 27 1 27 12 0 9 -7 16 -15 16 -9
0 -15 9 -15 25 0 16 6 25 15 25 8 0 15 5 15 10 0 6 -7 10 -15 10 -9 0 -15 9
-15 25 0 16 6 25 15 25 8 0 15 5 15 10 0 6 -14 10 -30 10 l-31 0 3 -82z"/>
<path d="M2830 184 l0 -85 27 3 c28 3 45 28 19 28 -10 0 -16 9 -16 25 0 16 6
25 15 25 8 0 15 5 15 10 0 6 -7 10 -15 10 -9 0 -15 9 -15 25 0 16 6 25 15 25
8 0 15 5 15 10 0 6 -13 10 -30 10 l-30 0 0 -86z"/>
<path d="M2942 188 c2 -54 7 -83 16 -86 8 -2 12 8 12 32 0 44 18 48 22 4 2
-17 8 -33 15 -35 9 -3 12 19 12 81 l0 86 -40 0 -40 0 3 -82z m48 37 c0 -14 -4
-25 -10 -25 -5 0 -10 11 -10 25 0 14 5 25 10 25 6 0 10 -11 10 -25z"/>
<path d="M3080 184 c0 -64 3 -85 13 -82 8 3 13 32 15 86 2 68 0 82 -13 82 -12
0 -15 -15 -15 -86z"/>
<path d="M3162 188 c2 -54 7 -83 16 -86 8 -2 12 11 13 45 l1 48 10 -35 c25
-88 48 -73 48 31 0 64 -3 79 -15 79 -11 0 -15 -12 -16 -42 l-1 -43 -10 43 c-7
32 -14 42 -29 42 -18 0 -20 -6 -17 -82z"/>
<path d="M3307 263 c-4 -3 -7 -37 -7 -73 0 -74 12 -94 52 -88 19 2 23 10 26
46 2 33 0 42 -12 42 -11 0 -16 -10 -16 -30 0 -16 -4 -30 -10 -30 -6 0 -10 27
-10 60 0 53 2 60 20 60 11 0 20 5 20 10 0 11 -53 14 -63 3z"/>
</g>
</svg>
