<?xml version="1.0" standalone="no"?>
<!DOCTYPE svg PUBLIC "-//W3C//DTD SVG 20010904//EN"
 "http://www.w3.org/TR/2001/REC-SVG-20010904/DTD/svg10.dtd">
<svg version="1.0" xmlns="http://www.w3.org/2000/svg"
 width="768.000000pt" height="240.000000pt" viewBox="0 0 768.000000 240.000000"
 preserveAspectRatio="xMidYMid meet">

<g transform="translate(0.000000,240.000000) scale(0.100000,-0.100000)"
fill="#000000" stroke="none">
<path d="M173 2313 c-16 -93 -9 -548 10 -678 82 -557 343 -975 731 -1172 l69
-35 73 37 c153 75 342 246 449 405 72 107 148 264 189 388 85 258 109 432 107
767 0 138 -4 268 -9 290 l-7 40 -802 3 -802 2 -8 -47z m1604 -10 c4 -21 7
-150 7 -288 0 -275 -12 -384 -64 -601 -104 -424 -349 -766 -665 -929 l-74 -38
-75 41 c-403 218 -656 661 -716 1256 -13 124 -10 562 4 584 5 9 185 12 791 12
l784 0 8 -37z"/>
<path d="M596 2182 c-2 -4 16 -43 40 -86 24 -43 44 -80 44 -82 0 -2 -39 -5
-87 -6 l-88 -3 -5 -50 -5 -50 -83 -3 -83 -3 6 -62 c18 -180 28 -258 41 -317
24 -110 77 -272 91 -277 7 -3 38 9 68 26 l55 31 36 -72 c20 -40 49 -91 65
-114 15 -23 24 -45 20 -50 -5 -5 -25 -39 -45 -75 l-36 -66 53 -60 c59 -69 167
-162 244 -211 l53 -34 43 25 c80 47 166 118 237 195 38 41 70 80 70 86 0 5
-18 40 -40 77 -22 37 -40 70 -40 72 0 3 15 28 34 56 19 28 46 75 61 106 15 30
31 55 37 55 5 0 31 -11 58 -25 27 -14 54 -25 59 -25 16 0 80 214 102 340 11
63 22 161 26 217 l6 103 -80 0 -81 0 -7 55 -6 55 -85 0 c-53 0 -84 4 -84 11 0
6 18 42 41 80 22 38 37 74 34 79 -7 12 -761 14 -769 2z m374 -337 l0 -145
-225 0 -225 0 0 145 0 145 225 0 225 0 0 -145z m474 123 c3 -13 6 -78 6 -145
l0 -123 -225 0 -225 0 0 145 0 145 219 0 c218 0 219 0 225 -22z m-8 -353 c-18
-174 -102 -392 -204 -526 -57 -74 -163 -174 -216 -203 l-36 -19 -52 35 c-144
96 -271 269 -342 468 -27 74 -69 287 -60 302 3 4 210 8 461 8 l456 0 -7 -65z"/>
<path d="M692 1917 c-12 -13 -19 -27 -15 -30 3 -4 -17 -7 -45 -7 -62 0 -100
-27 -83 -59 14 -25 40 -34 58 -19 13 10 21 6 49 -25 30 -32 40 -37 78 -37 39
0 51 6 91 43 53 48 82 66 108 67 22 0 22 21 -1 26 -9 3 -25 18 -34 35 -22 37
-37 37 -51 -1 -8 -22 -18 -30 -36 -30 -13 0 -21 3 -18 7 12 11 -35 53 -58 53
-12 0 -31 -10 -43 -23z m58 -7 c0 -5 -7 -10 -16 -10 -8 0 -12 5 -9 10 3 6 10
10 16 10 5 0 9 -4 9 -10z m130 -20 c0 -5 -4 -10 -10 -10 -5 0 -10 5 -10 10 0
6 5 10 10 10 6 0 10 -4 10 -10z m-286 -61 c-3 -5 -10 -7 -15 -3 -5 3 -7 10 -3
15 3 5 10 7 15 3 5 -3 7 -10 3 -15z m236 -7 c-19 -15 -43 -35 -52 -44 -35 -35
-84 -15 -137 55 -13 16 -6 17 105 17 l119 0 -35 -28z"/>
<path d="M1071 1936 c-18 -19 -21 -35 -21 -109 l0 -87 165 0 165 0 0 93 c0
126 1 126 -161 126 -118 0 -128 -2 -148 -23z m127 -8 c7 -7 12 -39 12 -76 l0
-63 -52 3 c-29 2 -52 6 -50 11 1 4 2 36 2 72 l0 65 38 0 c21 0 43 -5 50 -12z
m130 -65 l3 -73 -51 0 -50 0 0 68 c0 38 3 72 7 76 4 4 25 6 48 4 l40 -3 3 -72z"/>
<path d="M1175 1608 c-11 -6 -30 -20 -42 -30 -19 -18 -26 -19 -58 -8 -45 15
-55 7 -62 -49 -6 -46 -23 -46 -23 0 0 36 -16 69 -33 69 -7 0 -23 -9 -36 -19
-24 -18 -25 -18 -65 0 -23 10 -52 19 -65 19 -23 0 -24 -2 -19 -64 5 -59 3 -67
-18 -87 -28 -27 -30 -44 -6 -58 16 -10 16 -12 0 -25 -24 -18 -23 -25 8 -57 24
-25 25 -31 15 -60 -6 -18 -11 -45 -11 -60 0 -26 3 -29 35 -29 19 0 46 6 61 12
22 11 28 10 32 -1 2 -7 14 -23 26 -35 11 -11 21 -29 21 -40 0 -10 10 -25 22
-33 19 -13 24 -12 42 6 12 12 23 21 26 21 10 0 70 44 78 58 4 6 15 12 23 12 8
0 17 7 20 15 4 8 12 15 19 15 23 0 40 30 28 49 -12 20 -7 31 22 47 15 9 19 20
17 48 -2 31 3 41 38 74 22 22 40 44 40 51 0 6 -16 19 -35 28 -30 14 -35 22
-36 52 -2 79 -22 103 -64 79z"/>
<path d="M5738 1904 c-34 -18 -48 -43 -48 -86 0 -46 22 -74 83 -104 70 -35 97
-62 97 -96 0 -65 -88 -93 -134 -43 -13 14 -28 39 -33 57 -11 32 -11 32 -12
-19 -1 -48 1 -54 29 -68 59 -31 155 -12 181 36 16 31 14 85 -5 114 -9 14 -43
38 -76 55 -69 35 -94 66 -84 104 12 50 79 62 119 21 14 -13 25 -33 25 -45 0
-11 5 -20 10 -20 6 0 10 18 10 41 0 36 -3 41 -35 55 -44 18 -92 17 -127 -2z"/>
<path d="M7170 1913 c-71 -27 -113 -98 -114 -194 -1 -113 63 -189 159 -189
131 0 206 171 135 309 -31 62 -118 97 -180 74z m99 -38 c38 -32 55 -83 53
-161 -1 -68 -28 -136 -61 -154 -35 -18 -76 -12 -103 18 -37 38 -48 73 -48 148
0 141 79 215 159 149z"/>
<path d="M2300 1886 c0 -13 -3 -38 -6 -55 -9 -44 7 -38 31 12 21 43 58 66 89
54 15 -6 16 -26 14 -169 -3 -158 -4 -163 -25 -173 -40 -17 -25 -25 47 -25 40
0 70 4 70 10 0 6 -4 10 -9 10 -5 0 -17 7 -25 16 -24 23 -24 322 0 331 31 12
68 -11 89 -54 23 -48 38 -56 31 -15 -2 15 -5 39 -5 55 l-1 27 -150 0 -150 0 0
-24z"/>
<path d="M2673 1894 l28 -15 -3 -157 c-3 -151 -4 -157 -25 -168 -34 -16 -17
-24 54 -24 61 0 84 12 43 23 -18 5 -20 14 -20 86 l0 81 90 0 91 0 -3 -77 c-3
-69 -6 -79 -25 -89 -34 -16 -17 -24 54 -24 61 0 84 12 43 23 -19 5 -20 14 -20
170 0 160 1 164 23 175 18 9 8 11 -53 11 -72 0 -74 0 -47 -15 25 -14 27 -19
27 -84 l0 -70 -90 0 -90 0 0 73 c0 67 2 75 23 85 18 9 8 11 -53 11 -72 0 -74
0 -47 -15z"/>
<path d="M3090 1897 c25 -13 25 -13 28 -175 l2 -161 -25 -7 c-14 -3 -22 -10
-19 -15 7 -11 261 -12 268 -1 3 5 8 29 12 53 l7 43 -40 -42 c-35 -37 -45 -42
-84 -42 -25 0 -50 5 -57 12 -7 7 -12 42 -12 85 l0 73 50 0 c46 0 52 -3 62 -27
l12 -28 4 33 c2 17 2 47 0 65 l-4 32 -12 -27 c-10 -25 -16 -28 -62 -28 l-50 0
0 80 0 80 44 0 c63 0 90 -13 109 -52 l17 -33 0 48 0 47 -137 0 c-118 0 -134
-2 -113 -13z"/>
<path d="M3620 1897 c24 -12 25 -15 30 -152 3 -87 10 -149 18 -162 43 -75 202
-66 232 13 6 14 10 80 10 147 0 127 2 137 35 155 16 9 8 11 -45 11 -55 -1 -61
-2 -37 -11 l27 -10 0 -128 c0 -73 -5 -140 -11 -153 -22 -47 -107 -63 -150 -28
-23 18 -24 26 -27 163 -3 143 -3 144 20 155 19 10 11 12 -52 12 -67 1 -72 -1
-50 -12z"/>
<path d="M4018 1890 c21 -20 22 -29 22 -176 0 -147 -1 -156 -20 -161 -39 -10
-19 -23 35 -23 30 0 55 5 55 10 0 6 -6 10 -14 10 -31 0 -37 27 -34 160 l3 132
114 -156 c63 -86 118 -156 123 -156 4 0 8 80 8 178 0 176 0 179 23 190 18 9
12 11 -38 11 -59 0 -59 0 -32 -15 l27 -15 0 -119 c0 -66 -3 -120 -7 -120 -5 0
-52 61 -106 135 l-99 135 -41 0 -41 0 22 -20z"/>
<path d="M4413 1894 l28 -15 -3 -157 c-3 -151 -4 -157 -25 -168 -13 -6 -20
-14 -16 -17 10 -11 133 -8 133 3 0 6 -6 10 -14 10 -8 0 -18 4 -21 10 -5 7 -8
192 -5 311 0 9 10 21 23 27 18 9 8 11 -53 11 -72 0 -74 0 -47 -15z"/>
<path d="M4583 1898 c10 -7 50 -91 90 -187 39 -95 76 -173 81 -173 5 1 38 76
72 168 35 91 71 175 80 185 17 18 15 19 -37 19 -51 0 -52 -1 -29 -13 14 -8 24
-20 22 -28 -6 -31 -87 -249 -93 -249 -7 0 -109 240 -109 257 0 6 12 16 28 21
22 9 15 11 -47 11 -62 1 -72 -1 -58 -11z"/>
<path d="M4988 1898 c21 -11 22 -15 22 -175 0 -156 -1 -165 -20 -170 -11 -3
-20 -9 -20 -14 0 -11 270 -12 270 -1 1 4 5 26 9 50 10 51 0 54 -28 8 -12 -19
-28 -37 -37 -40 -27 -10 -99 -7 -112 6 -7 7 -12 42 -12 85 l0 73 50 0 c46 0
52 -3 62 -27 l12 -28 4 33 c2 17 2 47 0 65 l-4 32 -12 -27 c-10 -25 -16 -28
-62 -28 l-51 0 3 78 3 77 59 0 c60 -1 67 -5 103 -61 10 -16 12 -12 12 29 l1
47 -137 -1 c-107 0 -133 -3 -115 -11z"/>
<path d="M5333 1894 l28 -15 -3 -157 c-3 -151 -4 -157 -25 -168 -34 -16 -17
-24 54 -24 61 0 84 12 43 23 -18 5 -20 14 -20 76 0 94 13 93 86 -6 67 -91 69
-93 112 -93 38 0 42 12 9 27 -13 6 -46 42 -72 79 -45 63 -47 68 -30 78 43 25
65 55 65 91 0 82 -39 105 -177 105 -93 -1 -97 -2 -70 -16z m175 -30 c50 -56
12 -144 -63 -144 l-35 0 0 91 0 91 38 -6 c21 -4 47 -18 60 -32z"/>
<path d="M5998 1898 c21 -11 22 -15 22 -175 0 -156 -1 -165 -20 -170 -41 -11
-18 -23 44 -23 67 0 95 13 51 24 l-25 7 2 161 c3 162 3 162 28 175 22 11 17
13 -50 12 -61 0 -71 -2 -52 -11z"/>
<path d="M6186 1859 c-4 -28 -5 -53 -2 -56 2 -3 14 13 25 36 22 43 46 61 80
61 20 0 21 -5 21 -171 0 -162 -1 -171 -20 -176 -43 -11 -17 -23 50 -23 72 0
87 8 48 25 -22 10 -23 15 -26 173 -2 143 -1 163 14 169 31 12 68 -11 89 -54
24 -50 40 -56 31 -12 -3 17 -6 42 -6 55 l0 24 -149 0 -148 0 -7 -51z"/>
<path d="M6566 1888 c11 -13 38 -57 59 -98 21 -41 42 -80 47 -87 5 -6 8 -40 6
-75 -3 -54 -6 -64 -25 -73 -40 -17 -25 -25 46 -25 71 0 101 13 56 24 -24 6
-25 10 -25 73 0 60 5 74 46 152 26 47 56 96 67 109 l20 22 -54 -1 c-42 0 -49
-2 -31 -9 12 -5 22 -15 22 -22 0 -15 -72 -158 -81 -158 -7 0 -92 160 -87 165
2 2 15 8 28 14 20 8 12 10 -44 10 l-69 1 19 -22z"/>
<path d="M7433 1894 l28 -15 -3 -157 c-3 -151 -4 -157 -25 -168 -35 -17 -17
-24 58 -24 72 0 99 14 49 25 -35 8 -43 28 -38 106 3 48 6 54 27 57 40 6 69 -7
79 -35 9 -24 10 -18 11 37 0 64 0 64 -15 37 -13 -25 -20 -28 -57 -25 l-42 3 0
80 0 80 39 3 c53 5 90 -13 109 -51 l16 -32 0 48 1 47 -132 0 c-124 -1 -131 -2
-105 -16z"/>
<path d="M7263 1270 c-57 -12 -97 -34 -150 -83 -154 -142 -164 -450 -18 -600
106 -109 298 -128 448 -44 l37 21 0 111 c0 122 7 139 60 147 14 2 26 11 28 21
3 15 -8 17 -133 17 -122 0 -136 -2 -133 -17 2 -9 16 -20 33 -25 48 -12 55 -31
55 -145 0 -100 -1 -103 -27 -120 -39 -26 -159 -30 -207 -8 -50 24 -100 83
-127 151 -21 52 -23 76 -24 200 l0 141 35 69 c47 91 96 126 184 132 104 7 167
-37 201 -139 24 -70 39 -58 43 34 l3 77 -33 20 c-63 39 -192 58 -275 40z"/>
<path d="M2297 1264 c-13 -13 -7 -23 21 -36 29 -14 36 -32 208 -540 39 -116
72 -198 79 -198 7 0 45 93 90 225 42 124 79 225 80 225 4 0 15 -35 86 -265 54
-176 62 -196 78 -179 6 5 60 162 120 348 61 187 118 350 126 363 9 12 22 23
30 23 8 0 15 9 15 20 0 19 -7 20 -94 20 -59 0 -97 -4 -102 -11 -8 -14 14 -29
42 -29 11 0 29 -6 39 -14 19 -13 18 -16 -12 -112 -117 -367 -139 -432 -145
-426 -12 12 -160 502 -156 518 3 19 21 30 61 39 15 3 27 12 27 20 0 12 -21 15
-125 15 -117 0 -125 -1 -125 -19 0 -13 8 -21 23 -23 18 -3 28 -20 59 -112 l36
-109 -55 -161 c-31 -88 -59 -165 -63 -170 -11 -11 -182 508 -174 528 3 9 18
19 33 22 53 12 62 16 58 27 -4 13 -248 23 -260 11z"/>
<path d="M3330 1250 c0 -15 7 -20 25 -20 14 0 34 -9 45 -20 19 -19 20 -33 20
-317 0 -164 -3 -308 -6 -320 -4 -16 -19 -27 -45 -35 -22 -6 -39 -17 -39 -25 0
-10 30 -13 140 -13 109 0 140 3 140 13 0 8 -17 18 -37 23 -62 15 -63 22 -61
361 2 212 6 305 15 314 6 6 26 14 45 18 19 4 33 13 33 21 0 12 -25 16 -137 18
-133 2 -138 2 -138 -18z"/>
<path d="M3704 1259 c-7 -12 12 -29 33 -29 6 0 23 -14 37 -31 l26 -31 0 -298
c0 -327 1 -322 -60 -335 -16 -4 -30 -13 -30 -21 0 -11 22 -14 115 -14 87 0
115 3 115 13 0 7 -20 18 -45 25 -33 9 -46 18 -50 34 -3 13 -4 141 -3 286 l3
263 229 -310 c125 -171 235 -311 242 -311 12 0 14 58 14 345 0 332 1 346 20
365 11 11 31 20 45 20 18 0 25 5 25 20 0 19 -7 20 -116 20 -105 0 -115 -2
-112 -17 2 -12 14 -19 35 -21 62 -6 64 -12 61 -289 l-3 -250 -175 240 c-96
133 -192 263 -213 289 l-37 48 -75 0 c-43 0 -77 -5 -81 -11z"/>
<path d="M4505 1260 c-8 -14 3 -30 21 -30 8 0 26 -12 39 -26 l25 -27 0 -307
c0 -335 2 -324 -58 -336 -18 -4 -32 -13 -32 -20 0 -11 25 -14 120 -14 95 0
120 3 120 14 0 8 -16 16 -39 20 -21 3 -43 12 -49 19 -11 13 -23 568 -12 566 3
0 106 -138 230 -307 124 -169 233 -308 243 -310 16 -3 17 21 17 346 0 320 1
350 18 365 9 8 28 17 42 19 14 2 26 11 28 21 3 15 -7 17 -113 17 -105 0 -116
-2 -113 -17 2 -10 17 -20 38 -24 59 -12 60 -18 60 -286 0 -134 -3 -243 -7
-243 -5 0 -101 128 -214 283 l-205 282 -76 3 c-45 2 -79 -1 -83 -8z"/>
<path d="M5315 1260 c-10 -16 4 -30 30 -30 54 0 55 -4 55 -349 0 -347 2 -335
-58 -347 -18 -4 -32 -13 -32 -20 0 -11 28 -14 140 -14 112 0 140 3 140 14 0 7
-14 16 -32 20 -60 12 -58 0 -58 345 0 174 4 322 9 329 5 8 24 17 42 21 20 4
35 14 37 24 3 15 -10 17 -132 17 -79 0 -137 -4 -141 -10z"/>
<path d="M5702 1254 c2 -11 16 -21 37 -25 18 -4 37 -13 42 -21 13 -19 11 -625
-1 -648 -6 -11 -26 -22 -45 -26 -20 -3 -35 -12 -35 -20 0 -11 30 -14 160 -14
136 0 160 2 160 15 0 8 -6 15 -12 15 -28 0 -88 22 -103 36 -12 12 -15 40 -15
128 l0 113 90 6 c132 8 202 43 241 119 45 88 33 182 -32 253 -61 66 -102 77
-312 83 -169 4 -179 3 -175 -14z m320 -34 c46 -13 105 -77 114 -125 10 -58 0
-143 -22 -172 -39 -52 -68 -66 -148 -71 l-76 -5 0 192 0 191 48 0 c26 0 63 -5
84 -10z"/>
<path d="M6315 1260 c-10 -16 4 -30 29 -30 12 0 31 -6 42 -14 18 -14 19 -31
22 -318 2 -335 1 -343 -57 -363 -19 -6 -37 -17 -39 -23 -3 -9 66 -12 277 -12
155 0 281 3 281 8 0 10 19 131 26 165 9 45 -18 32 -51 -24 -16 -28 -45 -64
-63 -80 -32 -28 -36 -29 -135 -29 -147 0 -142 -7 -142 182 l0 153 89 3 c80 3
91 1 112 -19 13 -12 26 -34 29 -50 4 -16 13 -29 21 -29 11 0 14 22 14 115 0
93 -3 115 -14 115 -8 0 -17 -13 -21 -30 -4 -16 -18 -39 -33 -50 -22 -18 -37
-20 -111 -18 l-86 3 -3 158 -3 157 113 0 c138 0 163 -11 203 -94 15 -31 31
-56 37 -56 5 0 7 41 6 93 l-3 92 -267 3 c-173 1 -269 -1 -273 -8z"/>
<path d="M160 976 l-85 -11 1 -30 c0 -16 2 -45 5 -64 4 -32 2 -35 -31 -43 -19
-5 -39 -13 -43 -17 -14 -14 53 -179 110 -268 91 -146 197 -254 326 -334 l47
-29 20 33 c11 17 21 36 23 40 1 5 20 1 41 -9 40 -19 39 -15 20 -90 -6 -24 22
-38 141 -70 79 -21 331 -30 420 -15 83 15 225 59 225 70 0 5 -7 25 -16 46 -8
20 -14 38 -12 40 14 12 71 35 76 31 3 -3 15 -22 27 -42 l21 -35 75 50 c96 64
231 204 294 305 49 79 115 230 115 264 0 13 -11 21 -37 28 -41 10 -41 11 -32
99 l4 40 -95 12 c-52 6 -98 8 -101 5 -3 -4 -11 -33 -18 -64 -14 -66 -5 -94 34
-104 32 -8 31 -22 -6 -97 -59 -118 -165 -245 -252 -301 -27 -18 -27 -18 -48 8
-27 34 -60 33 -124 -2 -49 -27 -50 -28 -49 -75 0 -47 0 -47 -39 -58 -142 -38
-283 -38 -426 1 -40 10 -42 13 -36 40 10 46 -3 69 -55 95 -64 33 -103 33 -124
0 -9 -14 -20 -25 -24 -25 -19 0 -137 110 -186 173 -48 63 -135 224 -125 230 2
1 18 9 34 18 28 14 30 19 29 67 -2 67 -11 102 -27 101 -6 -1 -50 -7 -97 -13z
m105 -66 c10 -73 -15 -100 -55 -60 -16 16 -25 18 -45 10 -51 -20 -55 -16 -70
56 l-6 32 78 9 c43 5 81 8 85 6 3 -2 9 -26 13 -53z m1544 45 l63 -7 -6 -46
c-3 -25 -8 -48 -11 -50 -3 -3 -22 0 -42 6 -33 10 -40 9 -59 -9 -18 -17 -26
-19 -43 -10 -24 14 -24 14 -10 81 8 40 14 50 27 46 10 -2 46 -8 81 -11z
m-1596 -189 c15 -41 49 -107 76 -148 50 -77 188 -215 240 -243 17 -8 31 -20
31 -26 0 -9 -59 -114 -76 -137 -5 -7 -122 78 -179 130 -32 29 -85 89 -118 133
-67 89 -149 251 -151 298 -1 29 1 31 64 48 36 9 70 17 75 18 6 0 22 -32 38
-73z m1675 48 c28 -8 52 -16 52 -18 0 -17 -47 -132 -79 -194 -74 -142 -239
-319 -351 -377 l-28 -15 -42 72 c-22 39 -39 71 -38 72 155 86 312 278 368 449
13 43 8 42 118 11z m-1218 -409 c51 -26 62 -49 38 -73 -7 -7 -22 -12 -34 -12
-17 0 -25 -9 -34 -35 -13 -39 -19 -41 -60 -20 l-29 15 21 36 c18 30 19 39 8
59 -16 30 -7 55 20 55 11 0 43 -11 70 -25z m719 12 c8 -10 7 -22 -1 -44 -10
-26 -9 -35 5 -57 23 -34 22 -41 -8 -54 -38 -18 -43 -15 -59 23 -10 23 -22 35
-35 35 -26 0 -52 27 -44 46 6 17 89 63 114 64 9 0 22 -6 28 -13z m-673 -132
c54 -22 188 -45 269 -45 79 0 194 19 264 44 24 9 45 15 45 14 1 -2 16 -36 33
-76 l32 -72 -36 -15 c-136 -57 -374 -74 -545 -40 -32 6 -160 45 -166 50 -4 3
59 155 65 155 2 0 19 -7 39 -15z"/>
<path d="M132 725 c-29 -13 -32 -17 -22 -35 12 -22 32 -28 24 -7 -3 8 6 18 21
25 14 6 25 16 25 22 0 13 -8 12 -48 -5z"/>
<path d="M173 653 c-26 -18 -30 -45 -9 -62 11 -10 21 -9 46 4 17 9 28 20 25
25 -4 7 -13 6 -25 0 -32 -17 -47 -11 -22 9 21 19 30 42 15 40 -5 0 -18 -7 -30
-16z"/>
<path d="M241 559 c-7 -12 -19 -18 -26 -15 -8 3 -17 1 -21 -5 -3 -6 3 -13 14
-16 12 -3 18 -11 16 -18 -3 -7 0 -16 6 -20 7 -4 14 2 17 14 5 19 15 25 36 22
14 -2 7 17 -9 23 -8 3 -13 10 -9 15 3 5 2 12 -3 15 -4 2 -14 -4 -21 -15z"/>
<path d="M327 432 l-27 -29 20 -18 c24 -22 39 -13 19 11 -12 15 -12 16 7 10
32 -10 49 16 26 37 -17 16 -20 15 -45 -11z"/>
<path d="M413 386 c3 -8 -1 -20 -9 -26 -15 -13 -19 -40 -6 -40 4 0 13 9 20 21
8 12 19 18 28 15 20 -8 18 8 -4 27 -23 21 -36 22 -29 3z"/>
<path d="M1806 774 c-7 -26 3 -50 11 -27 3 9 12 9 29 2 31 -11 34 -11 34 1 0
5 -11 12 -25 16 -14 3 -25 12 -25 20 0 24 -18 15 -24 -12z"/>
<path d="M1780 710 c0 -5 6 -10 13 -11 6 0 2 -4 -10 -9 -32 -13 -29 -24 12
-43 35 -17 46 -12 23 11 -9 9 -7 12 10 12 30 0 28 24 -3 38 -32 15 -45 15 -45
2z"/>
<path d="M1734 618 c-7 -11 36 -69 46 -63 5 3 7 12 4 19 -3 7 2 16 10 19 9 4
16 11 16 16 0 11 -70 20 -76 9z"/>
<path d="M1687 552 c-16 -17 -15 -20 14 -41 24 -18 33 -20 45 -11 8 7 14 19
14 27 0 13 -2 13 -17 2 -15 -12 -16 -12 -10 4 6 15 3 17 -13 12 -15 -5 -18 -3
-14 9 8 21 1 20 -19 -2z"/>
<path d="M1637 492 c-16 -17 -15 -20 11 -45 28 -27 45 -28 35 -1 -3 10 0 12
10 8 8 -3 18 -1 22 5 3 6 -1 11 -9 11 -8 0 -20 9 -26 20 -13 25 -22 25 -43 2z"/>
<path d="M1588 439 c-24 -13 -23 -56 0 -68 14 -7 25 -6 40 5 27 19 28 36 4 57
-21 20 -21 20 -44 6z m35 -34 c1 -5 -6 -11 -15 -13 -11 -2 -18 3 -18 13 0 17
30 18 33 0z"/>
<path d="M1510 372 c0 -5 11 -19 24 -32 25 -22 56 -22 56 1 0 6 -7 9 -15 5 -9
-3 -20 3 -27 14 -13 20 -38 28 -38 12z"/>
<path d="M1467 343 c-15 -15 -14 -19 4 -45 26 -36 36 -36 36 1 0 22 -4 28 -16
23 -14 -5 -14 -3 -3 10 18 22 -1 31 -21 11z"/>
<path d="M710 226 c0 -28 13 -76 21 -76 11 0 52 60 45 67 -3 3 -12 1 -20 -6
-11 -9 -15 -7 -19 9 -6 22 -27 28 -27 6z"/>
<path d="M1207 223 c-14 -13 -6 -34 16 -43 17 -7 18 -9 5 -9 -25 -1 -22 -21 2
-21 27 0 38 29 17 45 -12 9 -14 14 -5 23 9 9 7 12 -8 12 -12 0 -24 -3 -27 -7z"/>
<path d="M806 198 c-17 -55 -11 -68 30 -68 20 0 17 18 -3 23 -17 4 -17 5 0 6
20 1 23 17 5 24 -8 3 -5 6 5 6 10 1 15 6 12 11 -9 14 -45 12 -49 -2z"/>
<path d="M1115 174 c-7 -38 1 -57 14 -35 5 8 17 11 30 6 25 -8 26 -2 4 36 -23
39 -39 37 -48 -7z"/>
<path d="M886 169 c-7 -38 1 -54 20 -38 10 8 14 8 14 0 0 -6 5 -11 11 -11 6 0
9 6 6 13 -3 8 -1 20 3 28 11 17 -6 39 -30 39 -12 0 -20 -10 -24 -31z"/>
<path d="M980 160 c0 -22 5 -40 10 -40 6 0 10 18 10 40 0 22 -4 40 -10 40 -5
0 -10 -18 -10 -40z"/>
<path d="M1027 194 c-3 -4 0 -13 8 -21 8 -8 15 -23 15 -34 0 -10 5 -19 10 -19
6 0 10 14 10 30 0 17 5 30 10 30 6 0 10 5 10 10 0 11 -53 14 -63 4z"/>
</g>
</svg>
